<svg width="16" height="16" viewBox="0 0 16 16" fill="none" xmlns="http://www.w3.org/2000/svg">
<path d="M6.64625 12.8538L2.14625 8.35375C2.09976 8.30732 2.06288 8.25217 2.03772 8.19147C2.01256 8.13077 1.99961 8.06571 1.99961 8C1.99961 7.9343 2.01256 7.86923 2.03772 7.80853C2.06288 7.74783 2.09976 7.69269 2.14625 7.64625L6.64625 3.14625C6.74007 3.05243 6.86732 2.99973 7 2.99973C7.13268 2.99973 7.25993 3.05243 7.35375 3.14625C7.44757 3.24007 7.50028 3.36732 7.50028 3.5C7.50028 3.63269 7.44757 3.75993 7.35375 3.85375L3.70688 7.5L13.5 7.5C13.6326 7.5 13.7598 7.55268 13.8536 7.64645C13.9473 7.74022 14 7.8674 14 8C14 8.13261 13.9473 8.25979 13.8536 8.35356C13.7598 8.44733 13.6326 8.5 13.5 8.5L3.70688 8.5L7.35375 12.1463C7.44757 12.2401 7.50028 12.3673 7.50028 12.5C7.50028 12.6327 7.44757 12.7599 7.35375 12.8538C7.25993 12.9476 7.13268 13.0003 7 13.0003C6.86732 13.0003 6.74007 12.9476 6.64625 12.8538Z" fill="white" fill-opacity="0.6"/>
</svg>
