<?xml version="1.0" encoding="UTF-8"?>
<svg version="1.1" xmlns="http://www.w3.org/2000/svg" width="64" height="64">
<path d="M0 0 C8.04071716 5.46768767 14.35713546 11.78672485 16.953125 21.328125 C17.97008074 32.73931439 17.08780568 41.52074309 9.640625 50.578125 C3.75028057 56.89640044 -1.9995096 60.87830798 -10.81640625 61.6640625 C-22.23808647 61.92046185 -29.76998744 60.10045244 -38.2578125 52.1875 C-45.41707366 44.7468705 -47.46537447 37.63799487 -47.41040039 27.37304688 C-47.154444 17.46241552 -43.06295379 11.07888989 -36.046875 4.328125 C-26.55128048 -3.80505814 -11.27874483 -6.1129075 0 0 Z " fill="#8FB80E" transform="translate(47.046875,2.671875)"/>
<path d="M0 0 C1.546875 -0.00773438 1.546875 -0.00773438 3.125 -0.015625 C5.97825278 0.24799075 7.6222456 0.68857142 10 2.25 C11.125 4.3125 11.125 4.3125 12 6.25 C12.66 6.58 13.32 6.91 14 7.25 C14.625 10.3125 14.625 10.3125 15 13.25 C15.66 13.25 16.32 13.25 17 13.25 C17.36894029 20.38284558 16.41342413 24.37998211 11.6875 30 C7.75525779 33.29210976 4.5578017 34.11091056 -0.5 34.5625 C-5.88600532 34.08160667 -9.30020489 32.2956809 -12.8125 28.25 C-15.69208049 24.30086104 -16.15483481 21.64411737 -16.1875 16.875 C-16.20167969 15.93914063 -16.21585938 15.00328125 -16.23046875 14.0390625 C-15.79882956 8.81549671 -13.95606532 5.62429101 -10 2.25 C-6.63620207 0.14949507 -3.93214985 -0.01966075 0 0 Z " fill="#CEFB16" transform="translate(32,14.75)"/>
<path d="M0 0 C2.79860252 3.48839892 4 6.54090088 4 11 C4.66 11 5.32 11 6 11 C7.43870968 19.4883871 7.43870968 19.4883871 5 24 C4.608125 24.804375 4.21625 25.60875 3.8125 26.4375 C0.41933688 31.23473061 -4.63067541 35.58380394 -10 38 C-13.75935317 38.25926574 -16.42365687 38.19211438 -20 37 C-20 36.34 -20 35.68 -20 35 C-20.8353125 34.814375 -20.8353125 34.814375 -21.6875 34.625 C-29.59450172 32.48797251 -29.59450172 32.48797251 -32 29 C-32.6875 25.3125 -32.6875 25.3125 -33 22 C-33.66 22 -34.32 22 -35 22 C-37.29501775 18.75997494 -37.15236511 15.99903176 -36.54296875 12.15625 C-35.14894044 6.62025269 -32.50815053 1.58000189 -28 -2 C-17.71985313 -7.78258261 -9.7406491 -6.62866522 0 0 Z M-27 3 C-27.598125 3.495 -28.19625 3.99 -28.8125 4.5 C-32.25042918 8.84264738 -31.5299539 15.80350757 -31 21 C-29.35536129 25.88028661 -26.25184461 29.16543693 -22 32 C-17.1188251 33.6270583 -13.25594987 33.41143185 -8.375 31.8125 C-4.02332946 29.47549175 -1.13589018 27.00133032 1.3125 22.6875 C2.24819177 19.0297958 2.12786669 15.77206749 2 12 C1.34 12 0.68 12 0 12 C-0.103125 11.071875 -0.20625 10.14375 -0.3125 9.1875 C-1.03120949 5.85530145 -1.49549152 5.10378712 -4 3 C-4.66 2.01 -5.32 1.02 -6 0 C-13.29646389 -2.43215463 -21.13646826 -2.26214387 -27 3 Z " fill="#A5D012" transform="translate(47,16)"/>
<path d="M0 0 C1.546875 -0.00773438 1.546875 -0.00773438 3.125 -0.015625 C5.97825278 0.24799075 7.6222456 0.68857142 10 2.25 C11.125 4.3125 11.125 4.3125 12 6.25 C12.66 6.58 13.32 6.91 14 7.25 C14.625 10.3125 14.625 10.3125 15 13.25 C15.66 13.25 16.32 13.25 17 13.25 C17.36894029 20.38284558 16.41342413 24.37998211 11.6875 30 C7.75525779 33.29210976 4.5578017 34.11091056 -0.5 34.5625 C-5.88600532 34.08160667 -9.30020489 32.2956809 -12.8125 28.25 C-15.69208049 24.30086104 -16.15483481 21.64411737 -16.1875 16.875 C-16.20167969 15.93914063 -16.21585938 15.00328125 -16.23046875 14.0390625 C-15.79882956 8.81549671 -13.95606532 5.62429101 -10 2.25 C-6.63620207 0.14949507 -3.93214985 -0.01966075 0 0 Z M-6.9375 7.5625 C-8.00291016 8.48482422 -8.00291016 8.48482422 -9.08984375 9.42578125 C-11.96229409 12.1690007 -12.96845583 13.67169024 -13.1875 17.6875 C-13.04307296 20.43161375 -12.82935343 22.65827053 -12 25.25 C-11.34 25.25 -10.68 25.25 -10 25.25 C-10 25.91 -10 26.57 -10 27.25 C-5.39657973 29.64761472 -2.10083946 30.82124383 3.07421875 29.88671875 C7.54271335 28.40930573 10.25134006 25.68221902 12.4375 21.5 C13.17292017 17.25090569 12.69538125 13.47866975 12 9.25 C11.34 9.25 10.68 9.25 10 9.25 C10 8.59 10 7.93 10 7.25 C9.34 7.25 8.68 7.25 8 7.25 C8 6.59 8 5.93 8 5.25 C6.35422741 5.08273455 4.70838013 4.91620388 3.0625 4.75 C2.14597656 4.6571875 1.22945312 4.564375 0.28515625 4.46875 C-3.46950841 4.10932911 -4.02921258 5.02235023 -6.9375 7.5625 Z " fill="#B8E514" transform="translate(32,14.75)"/>
<path d="M0 0 C4.75134207 3.28068857 7.82461096 6.29183805 9.625 11.8125 C10.25837988 17.28460755 10.41261044 22.17669369 8 27.1875 C-0.3889506 36.45949804 -0.3889506 36.45949804 -5.390625 37.05078125 C-11.36162657 37.24911871 -14.4275386 36.14252209 -19.375 32.8125 C-20.303125 32.35875 -21.23125 31.905 -22.1875 31.4375 C-25.0799904 29.28879284 -25.53602504 27.24467027 -26.375 23.8125 C-27.035 23.8125 -27.695 23.8125 -28.375 23.8125 C-28.95584802 15.0352411 -27.97375329 9.37092084 -22.5 2.4375 C-16.20151616 -2.37898764 -7.2931526 -2.56610925 0 0 Z M-20.375 4.8125 C-20.973125 5.3075 -21.57125 5.8025 -22.1875 6.3125 C-25.62542918 10.65514738 -24.9049539 17.61600757 -24.375 22.8125 C-22.73036129 27.69278661 -19.62684461 30.97793693 -15.375 33.8125 C-10.4938251 35.4395583 -6.63094987 35.22393185 -1.75 33.625 C2.60167054 31.28799175 5.48910982 28.81383032 7.9375 24.5 C8.87319177 20.8422958 8.75286669 17.58456749 8.625 13.8125 C7.965 13.8125 7.305 13.8125 6.625 13.8125 C6.521875 12.884375 6.41875 11.95625 6.3125 11 C5.59379051 7.66780145 5.12950848 6.91628712 2.625 4.8125 C1.965 3.8225 1.305 2.8325 0.625 1.8125 C-6.67146389 -0.61965463 -14.51146826 -0.44964387 -20.375 4.8125 Z " fill="#9CCB10" transform="translate(40.375,14.1875)"/>
<path d="M0 0 C1.546875 -0.00773438 1.546875 -0.00773438 3.125 -0.015625 C5.97825278 0.24799075 7.6222456 0.68857142 10 2.25 C11.125 4.3125 11.125 4.3125 12 6.25 C12.66 6.58 13.32 6.91 14 7.25 C14.625 10.3125 14.625 10.3125 15 13.25 C15.66 13.25 16.32 13.25 17 13.25 C17.1953125 19.3046875 17.1953125 19.3046875 17 21.25 C16.34 21.91 15.68 22.57 15 23.25 C14.34 18.63 13.68 14.01 13 9.25 C12.01 9.25 11.02 9.25 10 9.25 C9.67 7.6 9.34 5.95 9 4.25 C8.01 4.25 7.02 4.25 6 4.25 C6 3.59 6 2.93 6 2.25 C-3.13695201 2.74877715 -3.13695201 2.74877715 -10.75 7.1875 C-14.68659693 12.54564582 -14.43465166 17.26176986 -13.5 23.6875 C-13.335 24.533125 -13.17 25.37875 -13 26.25 C-15 25.25 -15 25.25 -16 22.25 C-16.1190686 20.46120198 -16.17522113 18.6677144 -16.1875 16.875 C-16.20167969 15.93914063 -16.21585938 15.00328125 -16.23046875 14.0390625 C-15.79882956 8.81549671 -13.95606532 5.62429101 -10 2.25 C-6.63620207 0.14949507 -3.93214985 -0.01966075 0 0 Z " fill="#B0DD13" transform="translate(32,14.75)"/>
<path d="M0 0 C3.25625077 0.88006778 4.74554762 1.66657964 6.8125 4.375 C8.89482776 10.73157948 9.31397944 17.27096577 6.375 23.375 C-2.07568942 32.71523567 -2.07568942 32.71523567 -7.0859375 33.203125 C-11.93607575 33.30244524 -15.00832592 33.09032832 -19 30 C-18.34 29.67 -17.68 29.34 -17 29 C-16.01 29.33 -15.02 29.66 -14 30 C-7.55010322 30.49614591 -2.75630367 29.23484081 2.3125 25.125 C6.00050339 20.48084759 6.41719478 15.73091802 7 10 C6.34 10 5.68 10 5 10 C4.67 8.02 4.34 6.04 4 4 C3.01 3.67 2.02 3.34 1 3 C0.67 2.01 0.34 1.02 0 0 Z " fill="#9AC510" transform="translate(42,18)"/>
<path d="M0 0 C0.90105469 0.00902344 1.80210938 0.01804687 2.73046875 0.02734375 C3.41753906 0.03894531 4.10460937 0.05054687 4.8125 0.0625 C4.8125 0.7225 4.8125 1.3825 4.8125 2.0625 C5.8025 2.0625 6.7925 2.0625 7.8125 2.0625 C8.1425 3.0525 8.4725 4.0425 8.8125 5.0625 C8.1525 5.0625 7.4925 5.0625 6.8125 5.0625 C6.8125 4.4025 6.8125 3.7425 6.8125 3.0625 C-0.19685223 2.23777651 -0.19685223 2.23777651 -6.6640625 4.55078125 C-9.28660576 6.85385106 -11.61598597 8.91947194 -13.1875 12.0625 C-13.25783769 13.93629605 -13.2718022 15.81251102 -13.25 17.6875 C-13.24097656 18.69039062 -13.23195313 19.69328125 -13.22265625 20.7265625 C-13.21105469 21.49742188 -13.19945312 22.26828125 -13.1875 23.0625 C-12.5275 23.0625 -11.8675 23.0625 -11.1875 23.0625 C-11.5175 23.7225 -11.8475 24.3825 -12.1875 25.0625 C-14.1875 24.0625 -14.1875 24.0625 -15.3125 21.4375 C-16.52806925 16.74887575 -17.03437546 12.93454049 -15 8.4375 C-10.51683908 2.56301328 -7.45577512 -0.09682825 0 0 Z " fill="#B5E113" transform="translate(33.1875,16.9375)"/>
<path d="M0 0 C0.33 0.99 0.66 1.98 1 3 C-3.8672578 8.33080616 -7.11150058 10.65281255 -14.5 11.3125 C-19.15227982 10.89711787 -22.30095476 9.41587103 -25.875 6.4375 C-27 5 -27 5 -27 3 C-24 4 -24 4 -23 6 C-19.96478606 7.01173798 -17.80266921 7.16573514 -14.625 7.1875 C-13.68914063 7.20167969 -12.75328125 7.21585938 -11.7890625 7.23046875 C-7.22779492 6.85355728 -4.72075022 5.8181489 -1.6875 2.375 C-1.130625 1.59125 -0.57375 0.8075 0 0 Z " fill="#A8D711" transform="translate(46,38)"/>
<path d="M0 0 C3.3 0 6.6 0 10 0 C10 0.66 10 1.32 10 2 C10.99 2 11.98 2 13 2 C13.33 2.99 13.66 3.98 14 5 C13.34 5 12.68 5 12 5 C12 4.34 12 3.68 12 3 C8.02022924 2.1558062 4.02992782 1.55312735 0 1 C0 0.67 0 0.34 0 0 Z " fill="#B3DF13" transform="translate(28,17)"/>
</svg>
