<svg width="16" height="16" viewBox="0 0 16 16" fill="none" xmlns="http://www.w3.org/2000/svg">
<path d="M7.64622 11.3537L2.64622 6.35366C2.59976 6.30721 2.56291 6.25206 2.53777 6.19136C2.51263 6.13066 2.49969 6.06561 2.49969 5.99991C2.49969 5.93421 2.51263 5.86916 2.53777 5.80846C2.56291 5.74777 2.59976 5.69262 2.64622 5.64616C2.69267 5.59971 2.74782 5.56286 2.80852 5.53772C2.86921 5.51257 2.93427 5.49963 2.99997 5.49963C3.06566 5.49963 3.13072 5.51257 3.19141 5.53772C3.25211 5.56286 3.30726 5.59971 3.35372 5.64616L7.99997 10.293L12.6462 5.64616C12.74 5.55234 12.8673 5.49963 13 5.49963C13.1326 5.49963 13.2599 5.55234 13.3537 5.64616C13.4475 5.73998 13.5002 5.86723 13.5002 5.99991C13.5002 6.13259 13.4475 6.25984 13.3537 6.35366L8.35372 11.3537C8.30728 11.4002 8.25214 11.437 8.19144 11.4622C8.13074 11.4874 8.06567 11.5003 7.99997 11.5003C7.93426 11.5003 7.8692 11.4874 7.8085 11.4622C7.7478 11.437 7.69265 11.4002 7.64622 11.3537Z" fill="white" fill-opacity="0.6"/>
</svg>
