<?xml version="1.0" encoding="UTF-8"?>
<svg id="Layer_1" xmlns="http://www.w3.org/2000/svg" version="1.1" viewBox="0 0 477.96 167.78">
  <!-- Generator: Adobe Illustrator 29.8.3, SVG Export Plug-In . SVG Version: 2.1.1 Build 3)  -->
  <defs>
    <style>
      .st0 {
        fill: #fff;
      }

      .st1 {
        fill: #cefb16;
      }
    </style>
  </defs>
  <path class="st0" d="M221.7,90.76c11.73-3.52,18.77-13.08,18.77-25.39s-11.81-26.38-29.8-26.38h-35.02v88.5h11.66v-35.02h22.33l19.98,35.02h13.65l-21.62-36.73h.04ZM196.35,82.72l-9,9.64v-43.56h21.8c12.05,0,19.31,6.33,19.31,16.93s-6.79,17-18.77,17h-13.33ZM297.4,63.74v37.48c0,10.85-6.61,17.96-17.53,17.96s-15.54-5.58-15.54-15.93v-39.5h-11.27v41.39c0,14.47,8.61,23.47,23.29,23.47s17.35-4.09,21.37-11.45h.25v10.38h10.67v-63.79h-11.27.04ZM334.83,63.74h-12.55l16.79,23.72,11.63-.36-15.82-23.36h-.04ZM379.85,63.74h-12.55l-16.64,23.36-5.94,8.36.11.14-22.94,31.9h12.52l16.25-24.29h.25l16.11,24.29h12.48l-22.4-32.32,22.72-31.47.03.04ZM415.9,62.63c-18.64,0-31.22,12.62-31.22,33s12.55,33,31.22,33,31.15-12.69,31.15-33-12.55-33-31.15-33ZM415.9,119.24c-11.91,0-19.73-8.61-19.73-23.61s7.82-23.61,19.73-23.61,19.7,8.57,19.7,23.61-7.75,23.61-19.7,23.61Z"/>
  <g>
    <polygon class="st1" points="131.54 70.03 140.91 84.42 129.31 101.92 119.81 87.78 131.54 70.03"/>
    <path class="st1" d="M116.68,106.59l-12.28-18.28,15.17-22.95h0l6.22-9.42,6.87-10.39-12.75-18.94-51.71.15-37.29,57.21,38.18,57.19h55.15l7.78-11.74-9.2-13.68-6.14-9.16ZM119.45,129.79l-.72,1h-44.43l-31.03-46.83,30.5-46.81,39.51-.13h.76l5.81,8.71-22,33.39-10.57-16.53h-11.04l15.88,25.06-15.01,22.31h11.78l9.4-13.67,21.23,31.85.56.81-.62.86Z"/>
  </g>
</svg>