<svg width="16" height="16" viewBox="0 0 16 16" fill="none" xmlns="http://www.w3.org/2000/svg">
<path d="M3.00023 4C3.00023 3.86739 3.05291 3.74021 3.14668 3.64645C3.24044 3.55268 3.36762 3.5 3.50023 3.5H4.50023V2.5C4.50023 2.36739 4.55291 2.24021 4.64668 2.14645C4.74044 2.05268 4.86762 2 5.00023 2C5.13284 2 5.26002 2.05268 5.35378 2.14645C5.44755 2.24021 5.50023 2.36739 5.50023 2.5V3.5H6.50023C6.63284 3.5 6.76002 3.55268 6.85378 3.64645C6.94755 3.74021 7.00023 3.86739 7.00023 4C7.00023 4.13261 6.94755 4.25979 6.85378 4.35355C6.76002 4.44732 6.63284 4.5 6.50023 4.5H5.50023V5.5C5.50023 5.63261 5.44755 5.75979 5.35378 5.85355C5.26002 5.94732 5.13284 6 5.00023 6C4.86762 6 4.74044 5.94732 4.64668 5.85355C4.55291 5.75979 4.50023 5.63261 4.50023 5.5V4.5H3.50023C3.36762 4.5 3.24044 4.44732 3.14668 4.35355C3.05291 4.25979 3.00023 4.13261 3.00023 4ZM11.5002 12H11.0002V11.5C11.0002 11.3674 10.9476 11.2402 10.8538 11.1464C10.76 11.0527 10.6328 11 10.5002 11C10.3676 11 10.2404 11.0527 10.1467 11.1464C10.0529 11.2402 10.0002 11.3674 10.0002 11.5V12H9.50023C9.36762 12 9.24044 12.0527 9.14668 12.1464C9.05291 12.2402 9.00023 12.3674 9.00023 12.5C9.00023 12.6326 9.05291 12.7598 9.14668 12.8536C9.24044 12.9473 9.36762 13 9.50023 13H10.0002V13.5C10.0002 13.6326 10.0529 13.7598 10.1467 13.8536C10.2404 13.9473 10.3676 14 10.5002 14C10.6328 14 10.76 13.9473 10.8538 13.8536C10.9476 13.7598 11.0002 13.6326 11.0002 13.5V13H11.5002C11.6328 13 11.76 12.9473 11.8538 12.8536C11.9476 12.7598 12.0002 12.6326 12.0002 12.5C12.0002 12.3674 11.9476 12.2402 11.8538 12.1464C11.76 12.0527 11.6328 12 11.5002 12ZM15.0002 9H14.0002V8C14.0002 7.86739 13.9476 7.74021 13.8538 7.64645C13.76 7.55268 13.6328 7.5 13.5002 7.5C13.3676 7.5 13.2404 7.55268 13.1467 7.64645C13.0529 7.74021 13.0002 7.86739 13.0002 8V9H12.0002C11.8676 9 11.7404 9.05268 11.6467 9.14645C11.5529 9.24021 11.5002 9.36739 11.5002 9.5C11.5002 9.63261 11.5529 9.75979 11.6467 9.85355C11.7404 9.94732 11.8676 10 12.0002 10H13.0002V11C13.0002 11.1326 13.0529 11.2598 13.1467 11.3536C13.2404 11.4473 13.3676 11.5 13.5002 11.5C13.6328 11.5 13.76 11.4473 13.8538 11.3536C13.9476 11.2598 14.0002 11.1326 14.0002 11V10H15.0002C15.1328 10 15.26 9.94732 15.3538 9.85355C15.4476 9.75979 15.5002 9.63261 15.5002 9.5C15.5002 9.36739 15.4476 9.24021 15.3538 9.14645C15.26 9.05268 15.1328 9 15.0002 9ZM13.7071 5L5.00023 13.7069C4.81271 13.8943 4.55846 13.9995 4.29335 13.9995C4.02825 13.9995 3.774 13.8943 3.58648 13.7069L2.29273 12.4144C2.19985 12.3215 2.12617 12.2113 2.0759 12.0899C2.02563 11.9686 1.99976 11.8385 1.99976 11.7072C1.99976 11.5758 2.02563 11.4458 2.0759 11.3245C2.12617 11.2031 2.19985 11.0929 2.29273 11L11.0002 2.29312C11.0931 2.20024 11.2033 2.12656 11.3247 2.07629C11.446 2.02602 11.5761 2.00015 11.7074 2.00015C11.8388 2.00015 11.9688 2.02602 12.0902 2.07629C12.2115 2.12656 12.3217 2.20024 12.4146 2.29312L13.7071 3.58562C13.8 3.67849 13.8737 3.78874 13.9239 3.91008C13.9742 4.03142 14.0001 4.16147 14.0001 4.29281C14.0001 4.42415 13.9742 4.55421 13.9239 4.67555C13.8737 4.79689 13.8 4.90714 13.7071 5ZM10.2927 7L9.00023 5.70687L3.00023 11.7069L4.29273 13L10.2927 7ZM13.0002 4.29313L11.7071 3L9.7071 5L11.0002 6.29313L13.0002 4.29313Z" fill="url(#paint0_linear_1_754)"/>
<defs>
<linearGradient id="paint0_linear_1_754" x1="8.74999" y1="2" x2="8.74999" y2="14" gradientUnits="userSpaceOnUse">
<stop stop-color="#cefb16"/>
<stop offset="1" stop-color="#cefb16"/>
</linearGradient>
</defs>
</svg>
