<svg width="24" height="24" viewBox="0 0 24 24" fill="none" xmlns="http://www.w3.org/2000/svg">
<g clip-path="url(#clip0_80_1377)">
<path d="M9 9.75C9 9.55109 9.07902 9.36032 9.21967 9.21967C9.36032 9.07902 9.55109 9 9.75 9H15.75C15.9489 9 16.1397 9.07902 16.2803 9.21967C16.421 9.36032 16.5 9.55109 16.5 9.75C16.5 9.94891 16.421 10.1397 16.2803 10.2803C16.1397 10.421 15.9489 10.5 15.75 10.5H9.75C9.55109 10.5 9.36032 10.421 9.21967 10.2803C9.07902 10.1397 9 9.94891 9 9.75ZM9.75 13.5H15.75C15.9489 13.5 16.1397 13.421 16.2803 13.2803C16.421 13.1397 16.5 12.9489 16.5 12.75C16.5 12.5511 16.421 12.3603 16.2803 12.2197C16.1397 12.079 15.9489 12 15.75 12H9.75C9.55109 12 9.36032 12.079 9.21967 12.2197C9.07902 12.3603 9 12.5511 9 12.75C9 12.9489 9.07902 13.1397 9.21967 13.2803C9.36032 13.421 9.55109 13.5 9.75 13.5ZM21.75 18C21.75 18.7956 21.4339 19.5587 20.8713 20.1213C20.3087 20.6839 19.5456 21 18.75 21H8.25C7.45435 21 6.69129 20.6839 6.12868 20.1213C5.56607 19.5587 5.25 18.7956 5.25 18V6C5.25 5.60218 5.09196 5.22064 4.81066 4.93934C4.52936 4.65804 4.14782 4.5 3.75 4.5C3.35218 4.5 2.97064 4.65804 2.68934 4.93934C2.40804 5.22064 2.25 5.60218 2.25 6C2.25 6.53813 2.70281 6.90188 2.7075 6.90563C2.83163 7.00115 2.92273 7.13313 2.96804 7.28306C3.01334 7.43299 3.01057 7.59335 2.96011 7.74162C2.90965 7.8899 2.81404 8.01866 2.68668 8.10983C2.55933 8.201 2.40663 8.25002 2.25 8.25C2.08781 8.25028 1.93003 8.19725 1.80094 8.09906C1.69219 8.01937 0.75 7.27594 0.75 6C0.75 5.20435 1.06607 4.44129 1.62868 3.87868C2.19129 3.31607 2.95435 3 3.75 3H16.5C17.2956 3 18.0587 3.31607 18.6213 3.87868C19.1839 4.44129 19.5 5.20435 19.5 6V15.75H20.25C20.4123 15.75 20.5702 15.8026 20.7 15.9C20.8125 15.9806 21.75 16.7241 21.75 18ZM9.02437 16.2638C9.07562 16.1125 9.17342 15.9813 9.30376 15.889C9.4341 15.7968 9.59031 15.7481 9.75 15.75H18V6C18 5.60218 17.842 5.22064 17.5607 4.93934C17.2794 4.65804 16.8978 4.5 16.5 4.5H6.34594C6.61119 4.95535 6.75064 5.47302 6.75 6V18C6.75 18.3978 6.90804 18.7794 7.18934 19.0607C7.47064 19.342 7.85218 19.5 8.25 19.5C8.64782 19.5 9.02936 19.342 9.31066 19.0607C9.59196 18.7794 9.75 18.3978 9.75 18C9.75 17.4619 9.29719 17.0981 9.2925 17.0944C9.16469 17.0029 9.06963 16.8729 9.02136 16.7233C8.97308 16.5738 8.97414 16.4127 9.02437 16.2638ZM20.25 18C20.2406 17.7221 20.1334 17.4565 19.9472 17.25H11.1347C11.2101 17.4929 11.2483 17.7457 11.2481 18C11.2488 18.5267 11.1101 19.0443 10.8459 19.5H18.75C19.1478 19.5 19.5294 19.342 19.8107 19.0607C20.092 18.7794 20.25 18.3978 20.25 18Z" fill="#cefb16"/>
<path d="M2.66667 20.8333H3.33333C3.51014 20.8333 3.67971 20.9036 3.80474 21.0286C3.92976 21.1536 4 21.3232 4 21.5C4 21.6768 3.92976 21.8464 3.80474 21.9714C3.67971 22.0964 3.51014 22.1667 3.33333 22.1667H2.66667V22.8333C2.66667 23.0101 2.59643 23.1797 2.47141 23.3047C2.34638 23.4298 2.17681 23.5 2 23.5C1.82319 23.5 1.65362 23.4298 1.52859 23.3047C1.40357 23.1797 1.33333 23.0101 1.33333 22.8333V22.1667H0.666667C0.489856 22.1667 0.320286 22.0964 0.195262 21.9714C0.0702374 21.8464 0 21.6768 0 21.5C0 21.3232 0.0702374 21.1536 0.195262 21.0286C0.320286 20.9036 0.489856 20.8333 0.666667 20.8333H1.33333V20.1667C1.33333 19.9899 1.40357 19.8203 1.52859 19.6953C1.65362 19.5702 1.82319 19.5 2 19.5C2.17681 19.5 2.34638 19.5702 2.47141 19.6953C2.59643 19.8203 2.66667 19.9899 2.66667 20.1667V20.8333Z" fill="#cefb16"/>
<path d="M19.1831 2.05806C19.0658 2.17527 19 2.33424 19 2.5C19 2.66576 19.0658 2.82473 19.1831 2.94194C19.3003 3.05915 19.4592 3.125 19.625 3.125H20.875V4.375C20.875 4.54076 20.9408 4.69973 21.0581 4.81694C21.1753 4.93415 21.3342 5 21.5 5C21.6658 5 21.8247 4.93415 21.9419 4.81694C22.0592 4.69973 22.125 4.54076 22.125 4.375V3.125H23.375C23.5408 3.125 23.6997 3.05915 23.8169 2.94194C23.9342 2.82473 24 2.66576 24 2.5C24 2.33424 23.9342 2.17527 23.8169 2.05806C23.6997 1.94085 23.5408 1.875 23.375 1.875H22.125V0.625C22.125 0.45924 22.0592 0.300269 21.9419 0.183058C21.8247 0.0658481 21.6658 0 21.5 0C21.3342 0 21.1753 0.0658481 21.0581 0.183058C20.9408 0.300269 20.875 0.45924 20.875 0.625V1.875H19.625C19.4592 1.875 19.3003 1.94085 19.1831 2.05806Z" fill="#cefb16"/>
</g>
<defs>
<clipPath id="clip0_80_1377">
<rect width="24" height="24" fill="white"/>
</clipPath>
</defs>
</svg>
