<svg width="24" height="24" viewBox="0 0 24 24" fill="none" xmlns="http://www.w3.org/2000/svg">
<path d="M16.1451 11.435L10.8113 8.10134C10.7104 8.03828 10.5945 8.00337 10.4756 8.00023C10.3566 7.99709 10.239 8.02584 10.1349 8.0835C10.0308 8.14115 9.94408 8.22561 9.88365 8.32811C9.82322 8.4306 9.79132 8.54741 9.79126 8.66639V15.3336C9.79132 15.4526 9.82322 15.5694 9.88365 15.6719C9.94408 15.7744 10.0308 15.8588 10.1349 15.9165C10.239 15.9742 10.3566 16.0029 10.4756 15.9998C10.5945 15.9966 10.7104 15.9617 10.8113 15.8987L16.1451 12.565C16.2409 12.5051 16.3198 12.4218 16.3745 12.3229C16.4292 12.2241 16.4579 12.113 16.4579 12C16.4579 11.887 16.4292 11.7759 16.3745 11.6771C16.3198 11.5782 16.2409 11.4949 16.1451 11.435ZM11.1247 14.131V9.86899L14.5342 12L11.1247 14.131Z" fill="#cefb16"/>
<path d="M22.5 6.25001V9.75001C22.5 9.94892 22.421 10.1397 22.2803 10.2803C22.1397 10.421 21.9489 10.5 21.75 10.5H18.25C18.0511 10.5 17.8603 10.421 17.7197 10.2803C17.579 10.1397 17.5 9.94892 17.5 9.75001C17.5 9.5511 17.579 9.36033 17.7197 9.21968C17.8603 9.07903 18.0511 9.00001 18.25 9.00001H19.8188L17.3259 6.71626L17.3025 6.69376C16.2601 5.65172 14.9337 4.93994 13.4891 4.64734C12.0445 4.35473 10.5457 4.49428 9.17991 5.04854C7.81414 5.60281 6.64197 6.54721 5.80982 7.76379C4.97768 8.98036 4.52245 10.4152 4.501 11.889C4.47956 13.3627 4.89286 14.8102 5.68926 16.0505C6.48566 17.2907 7.62986 18.2688 8.97892 18.8626C10.328 19.4564 11.8221 19.6395 13.2746 19.389C14.7271 19.1385 16.0736 18.4657 17.1459 17.4544C17.2905 17.3176 17.4835 17.2439 17.6825 17.2495C17.8814 17.255 18.07 17.3393 18.2067 17.4839C18.3435 17.6285 18.4172 17.8215 18.4117 18.0204C18.4061 18.2194 18.3218 18.4079 18.1772 18.5447C16.5098 20.126 14.298 21.0052 12 21H11.8763C10.4023 20.9798 8.95579 20.5979 7.66398 19.8878C6.37216 19.1776 5.27455 18.161 4.46762 16.9274C3.6607 15.6937 3.16915 14.2807 3.0362 12.8126C2.90324 11.3445 3.13294 9.86616 3.70511 8.5076C4.27728 7.14903 5.1744 5.95181 6.31762 5.02116C7.46085 4.09051 8.81517 3.45492 10.2616 3.17026C11.7079 2.88559 13.2021 2.96057 14.6127 3.38859C16.0234 3.81662 17.3073 4.58459 18.3516 5.62501L21 8.04376V6.25001C21 6.0511 21.079 5.86033 21.2197 5.71968C21.3603 5.57903 21.5511 5.50001 21.75 5.50001C21.9489 5.50001 22.1397 5.57903 22.2803 5.71968C22.421 5.86033 22.5 6.0511 22.5 6.25001Z" fill="#cefb16"/>
</svg>
