<svg width="8" height="8" viewBox="0 0 8 8" fill="none" xmlns="http://www.w3.org/2000/svg">
<path d="M7 4C7 4.0663 6.97366 4.12989 6.92678 4.17678C6.87989 4.22366 6.8163 4.25 6.75 4.25H4.25V6.75C4.25 6.8163 4.22366 6.87989 4.17678 6.92678C4.12989 6.97366 4.0663 7 4 7C3.9337 7 3.87011 6.97366 3.82322 6.92678C3.77634 6.87989 3.75 6.8163 3.75 6.75L3.75 4.25H1.25C1.1837 4.25 1.12011 4.22366 1.07322 4.17678C1.02634 4.12989 1 4.0663 1 4C1 3.9337 1.02634 3.87011 1.07322 3.82322C1.12011 3.77634 1.1837 3.75 1.25 3.75H3.75V1.25C3.75 1.1837 3.77634 1.12011 3.82322 1.07322C3.87011 1.02634 3.9337 1 4 1C4.0663 1 4.12989 1.02634 4.17678 1.07322C4.22366 1.12011 4.25 1.1837 4.25 1.25V3.75L6.75 3.75C6.8163 3.75 6.87989 3.77634 6.92678 3.82322C6.97366 3.87011 7 3.9337 7 4Z" fill="white"/>
</svg>
