<svg width="18" height="15" viewBox="0 0 18 15" fill="none" xmlns="http://www.w3.org/2000/svg">
<path d="M16.3636 0H1.36364C1.00198 0 0.655131 0.143668 0.3994 0.3994C0.143668 0.655131 0 1.00198 0 1.36364V13.6364C0 13.998 0.143668 14.3449 0.3994 14.6006C0.655131 14.8563 1.00198 15 1.36364 15H16.3636C16.7253 15 17.0721 14.8563 17.3279 14.6006C17.5836 14.3449 17.7273 13.998 17.7273 13.6364V1.36364C17.7273 1.00198 17.5836 0.655131 17.3279 0.3994C17.0721 0.143668 16.7253 0 16.3636 0ZM6.13636 6.81818C6.13636 6.27878 6.29632 5.75149 6.59599 5.30299C6.89567 4.85449 7.32161 4.50493 7.81995 4.29851C8.3183 4.09209 8.86666 4.03808 9.3957 4.14331C9.92474 4.24855 10.4107 4.50829 10.7921 4.88971C11.1735 5.27112 11.4333 5.75708 11.5385 6.28612C11.6437 6.81516 11.5897 7.36352 11.3833 7.86186C11.1769 8.36021 10.8273 8.78615 10.3788 9.08583C9.93033 9.3855 9.40304 9.54545 8.86364 9.54545C8.14032 9.54545 7.44663 9.25812 6.93516 8.74665C6.4237 8.23519 6.13636 7.5415 6.13636 6.81818ZM4.13949 13.6364C4.61817 12.807 5.30677 12.1183 6.13604 11.6394C6.96531 11.1605 7.90604 10.9084 8.86364 10.9084C9.82124 10.9084 10.762 11.1605 11.5912 11.6394C12.4205 12.1183 13.1091 12.807 13.5878 13.6364H4.13949ZM16.3636 13.6364H15.1134C14.3936 11.9928 13.0561 10.6984 11.3898 10.033C12.0591 9.50752 12.5479 8.78646 12.7881 7.97017C13.0283 7.15389 13.0081 6.283 12.7301 5.47878C12.4521 4.67456 11.9303 3.97702 11.2373 3.48331C10.5443 2.98959 9.71454 2.72426 8.86364 2.72426C8.01273 2.72426 7.183 2.98959 6.48998 3.48331C5.79695 3.97702 5.27513 4.67456 4.99716 5.47878C4.7192 6.283 4.69892 7.15389 4.93916 7.97017C5.1794 8.78646 5.6682 9.50752 6.3375 10.033C4.67118 10.6984 3.33362 11.9928 2.61392 13.6364H1.36364V1.36364H16.3636V13.6364Z" fill="#cefb16"/>
</svg>
