<?xml version="1.0" encoding="UTF-8"?>
<svg version="1.1" xmlns="http://www.w3.org/2000/svg" width="1024" height="1024">
<path d="M0 0 C1.51811279 0.403396 1.51811279 0.403396 3.06689453 0.81494141 C60.79946297 16.34261856 128.95831776 40.14038508 161.1875 93.6875 C174.02581284 117.02750023 180.09883345 142.86491221 184 169 C184.13422363 169.88719727 184.26844727 170.77439453 184.40673828 171.68847656 C188.9206917 203.4702639 186.88562846 237.23290036 183 269 C182.9175 269.68350525 182.835 270.3670105 182.75 271.07122803 C177.54098894 313.87652688 167.15009954 355.97993468 154 397 C155.09284302 397.41620605 155.09284302 397.41620605 156.20776367 397.84082031 C158.82694348 398.92815665 161.21122742 400.14897015 163.67578125 401.546875 C164.57321045 402.05452393 165.47063965 402.56217285 166.39526367 403.08520508 C167.83929565 403.90927856 167.83929565 403.90927856 169.3125 404.75 C170.83677612 405.61564575 170.83677612 405.61564575 172.3918457 406.4987793 C180.51704339 411.12525525 188.5956416 415.82982144 196.66333008 420.55566406 C204.41246562 425.08985869 212.1991078 429.55577214 220 434 C229.67490784 439.51246859 239.31282363 445.08424699 248.921875 450.7109375 C256.5857377 455.19166146 264.28678835 459.60506752 272 464 C281.67054233 469.51020542 291.30548938 475.07735616 300.90869141 480.7043457 C307.49003539 484.5541098 314.10210359 488.34721433 320.73071289 492.11474609 C326.49710563 495.39250542 332.25117666 498.69152246 338 502 C338.92731934 502.53286621 339.85463867 503.06573242 340.81005859 503.61474609 C360.89394797 515.23424852 375.75257765 529.22787961 382.6015625 552.140625 C386.6794036 567.53402264 384.59622079 583.35408612 379 598 C378.4440918 599.50143555 378.4440918 599.50143555 377.87695312 601.03320312 C371.41742194 618.41168909 364.03005015 635.29534718 356 652 C355.54657227 652.95068359 355.09314453 653.90136719 354.62597656 654.88085938 C334.98832831 695.87749831 309.30915131 734.30453563 280 769 C279.23091309 769.91773193 279.23091309 769.91773193 278.44628906 770.85400391 C266.98214843 784.529672 254.7197146 797.36668283 242.125 810 C241.63276947 810.49490936 241.14053894 810.98981873 240.63339233 811.49972534 C234.93556679 817.22108825 229.1491395 822.76348259 223 828 C221.80829313 829.0450502 220.61816845 830.09190758 219.4296875 831.140625 C211.7290041 837.89145381 203.90286937 844.41461405 195.77148438 850.640625 C194.01211707 851.99070178 192.26393777 853.35440336 190.515625 854.71875 C173.97219646 867.49605038 156.25895866 879.44773557 138.09375 889.80517578 C136.53294989 890.69586559 134.97631144 891.59385569 133.421875 892.49560547 C69.50820096 929.52755492 -0.62632829 952.64551975 -74 961 C-75.46832275 961.16991455 -75.46832275 961.16991455 -76.96630859 961.34326172 C-160.48228364 970.68182597 -248.12971138 957.71568155 -387.24951172 889.46923828 C-420.56666861 861.50513087 -434.71088577 820.07450632 -440 778 C-440.1544458 776.88890869 -440.1544458 776.88890869 -440.31201172 775.75537109 C-450.18931733 703.0565293 -433.63411093 625.37490692 -411.9609375 556.234375 C-410.90506741 553.24282158 -410.90506741 553.24282158 -411 551 C-411.65145996 550.62415771 -412.30291992 550.24831543 -412.97412109 549.86108398 C-449.14941406 528.99072266 -485.32470703 508.12036133 -521.5 487.25 C-522.57266113 486.63116943 -523.64532227 486.01233887 -524.75048828 485.37475586 C-526.91557071 484.12564482 -529.08060982 482.87645871 -531.24560547 481.62719727 C-536.68615706 478.48797691 -542.12747216 475.35009437 -547.5703125 472.21484375 C-561.12818664 464.40338674 -574.67662998 456.57661983 -588.16894531 448.65234375 C-590.94435478 447.03247731 -593.73233395 445.43638542 -596.5234375 443.84375 C-616.81548574 432.15388743 -632.5946766 417.32749535 -639 394 C-640.19933128 388.66789111 -640.25941835 383.50867749 -640.3125 378.0625 C-640.34150391 377.10537109 -640.37050781 376.14824219 -640.40039062 375.16210938 C-640.51292112 362.13454017 -635.58737841 350.30798091 -630.8125 338.375 C-630.32910156 337.1578833 -629.84570312 335.9407666 -629.34765625 334.68676758 C-625.53726282 325.17269149 -621.51656781 315.78088007 -617.16992188 306.5 C-616.35829847 304.76564615 -615.55272461 303.02845345 -614.75195312 301.2890625 C-607.9015395 286.41387863 -600.28216171 272.12502249 -592 258 C-591.47728516 257.10587402 -590.95457031 256.21174805 -590.41601562 255.29052734 C-583.96063836 244.28520255 -577.25739024 233.49459668 -570 223 C-569.525625 222.31309082 -569.05125 221.62618164 -568.5625 220.91845703 C-556.07585489 202.89980542 -542.78864313 185.30451188 -527.95703125 169.13671875 C-526.20488515 167.22369696 -524.50299234 165.27984717 -522.8125 163.3125 C-511.36692704 150.20163583 -499.3639474 137.0730772 -486.078125 125.796875 C-483.9194388 123.93034182 -481.82503184 122.00168132 -479.73413086 120.05981445 C-473.68674786 114.44963767 -467.47319497 109.11723298 -461 104 C-460.03731201 103.23647217 -460.03731201 103.23647217 -459.05517578 102.45751953 C-386.3627567 44.94503735 -300.33882399 4.29283746 -179 -14 C-177.37070557 -14.20133545 -177.37070557 -14.20133545 -175.70849609 -14.40673828 C-117.53092361 -21.2607986 -56.41956216 -15.16217466 0 0 Z M-120 185 C-120.82628906 185.25620117 -121.65257812 185.51240234 -122.50390625 185.77636719 C-157.44346083 196.80918216 -189.22261864 215.57106307 -218 238 C-218.94359375 238.72960937 -219.8871875 239.45921875 -220.859375 240.2109375 C-225.88233731 244.15755074 -230.67090164 248.31644804 -235.3828125 252.62890625 C-236.80220185 253.91483063 -238.2276058 255.19475106 -239.68286133 256.43994141 C-245.34753952 261.29455104 -250.66339168 266.47722871 -255.93579102 271.75048828 C-257.42641615 273.23893237 -258.92487017 274.71917277 -260.42382812 276.19921875 C-266.73452887 282.47355689 -272.44569363 289.03649724 -278 296 C-278.93485909 297.10176066 -279.8762011 298.19810568 -280.828125 299.28515625 C-338.12840247 364.99563574 -379.79003798 460.08438829 -380.203125 547.9140625 C-380.21018463 548.91874573 -380.21724426 549.92342896 -380.22451782 550.95855713 C-380.55883512 581.11870975 -380.55883512 581.11870975 -377 611 C-376.80664062 612.05590332 -376.61328125 613.11180664 -376.4140625 614.19970703 C-366.622865 666.29099311 -342.11074873 713.83517188 -298.06054688 744.59472656 C-275.768263 759.79785286 -250.61523433 768.37311504 -224 772 C-223.07445312 772.13277344 -222.14890625 772.26554688 -221.1953125 772.40234375 C-156.28188271 779.97212071 -90.05374554 750.13319342 -40 711 C-39.10152344 710.30390625 -38.20304687 709.6078125 -37.27734375 708.890625 C36.32769997 650.96405401 90.73474442 566.53796941 122.45703125 425.8671875 C123.46668441 417.00143194 124.16018669 408.23108578 124.203125 399.3046875 C124.21013931 398.32206436 124.21715363 397.33944122 124.22438049 396.32704163 C124.24177426 393.17631385 124.24823197 390.02577401 124.25 386.875 C124.25067474 385.79864288 124.25134949 384.72228577 124.25204468 383.61331177 C124.23635823 367.87980262 123.91958124 352.50709879 121 337 C120.82307617 336.04029297 120.64615234 335.08058594 120.46386719 334.09179688 C114.12117595 300.63656537 102.41790445 266.92701502 81 240 C80.35877197 239.18958252 80.35877197 239.18958252 79.70458984 238.36279297 C51.47883318 203.06752482 12.14787338 180.6290092 -32.9077301 175.20495605 C-36.25497184 174.87706458 -39.60061554 174.79886724 -42.9609375 174.76171875 C-43.70046158 174.7519249 -44.43998566 174.74213104 -45.20191956 174.73204041 C-71.11630868 174.46012299 -95.16923946 177.23334381 -120 185 Z " fill="#707070" transform="translate(640,37)"/>
<path d="M0 0 C7.2003122 3.47715727 14.11905811 7.30657529 21 11.375 C23.12726524 12.62427522 25.25488158 13.87295275 27.3828125 15.12109375 C28.47368164 15.76159668 29.56455078 16.40209961 30.68847656 17.06201172 C36.07000879 20.21142213 41.47195024 23.32519307 46.875 26.4375 C47.95394531 27.05931152 49.03289063 27.68112305 50.14453125 28.32177734 C52.33550936 29.58432523 54.52659019 30.84669488 56.71777344 32.10888672 C62.14659942 35.23680148 67.57319281 38.36858448 73 41.5 C75.16665583 42.75001879 77.3333225 44.00001878 79.5 45.25 C101.16666667 57.75 122.83333333 70.25 144.5 82.75 C146.1102002 83.6788501 146.1102002 83.6788501 147.75292969 84.62646484 C149.91009115 85.87113079 152.06699412 87.11624486 154.22363281 88.36181641 C159.78363611 91.57222653 165.34851634 94.77377204 170.921875 97.9609375 C220.73531094 126.47927093 220.73531094 126.47927093 229.6015625 156.140625 C233.6794036 171.53402264 231.59622079 187.35408612 226 202 C225.62939453 203.00095703 225.25878906 204.00191406 224.87695312 205.03320312 C218.41742194 222.41168909 211.03005015 239.29534718 203 256 C202.54657227 256.95068359 202.09314453 257.90136719 201.62597656 258.88085938 C181.98832831 299.87749831 156.30915131 338.30453563 127 373 C126.23091309 373.91773193 126.23091309 373.91773193 125.44628906 374.85400391 C113.98214843 388.529672 101.7197146 401.36668283 89.125 414 C88.63276947 414.49490936 88.14053894 414.98981873 87.63339233 415.49972534 C81.93556679 421.22108825 76.1491395 426.76348259 70 432 C68.80829313 433.0450502 67.61816845 434.09190758 66.4296875 435.140625 C58.7290041 441.89145381 50.90286937 448.41461405 42.77148438 454.640625 C41.01211707 455.99070178 39.26393777 457.35440336 37.515625 458.71875 C20.97219646 471.49605038 3.25895866 483.44773557 -14.90625 493.80517578 C-16.46705011 494.69586559 -18.02368856 495.59385569 -19.578125 496.49560547 C-83.49179904 533.52755492 -153.62632829 556.64551975 -227 565 C-228.46832275 565.16991455 -228.46832275 565.16991455 -229.96630859 565.34326172 C-313.53706516 574.68795151 -401.08065187 561.66037768 -508 513 C-508 512.01 -508 511.02 -508 510 C-507.12859375 510.26554687 -506.2571875 510.53109375 -505.359375 510.8046875 C-504.16828125 511.15789062 -502.9771875 511.51109375 -501.75 511.875 C-500.00976562 512.39707031 -500.00976562 512.39707031 -498.234375 512.9296875 C-448.29164699 526.29274175 -393.19335665 504.86550098 -350.33056641 480.13354492 C-327.96303552 466.93358469 -306.71722639 452.01914367 -286.73535156 435.43554688 C-284.31911933 433.43675037 -281.87628718 431.47117312 -279.4375 429.5 C-262.05994455 415.23020409 -245.79143178 399.86751873 -229.875 384 C-229.38354492 383.51122375 -228.89208984 383.02244751 -228.38574219 382.51885986 C-223.28249688 377.43679251 -218.29232822 372.31936569 -213.60498047 366.85009766 C-210.87625406 363.70463238 -207.98889807 360.70936466 -205.125 357.6875 C-200.26646836 352.52070379 -195.61932067 347.2638362 -191.19140625 341.71875 C-189.21266218 339.26383757 -187.18154823 336.8637499 -185.12451172 334.47436523 C-179.27792804 327.67135108 -173.81124274 320.61959001 -168.3984375 313.46875 C-165.50697254 309.65154582 -162.56630769 305.87538212 -159.61108398 302.10742188 C-153.69465252 294.55828983 -147.9359618 286.93807398 -142.44775391 279.07226562 C-140.75730114 276.65260912 -139.05591836 274.24076599 -137.35546875 271.828125 C-127.93151193 258.41337558 -118.8301022 244.81272476 -110 231 C-109.3184082 229.93507324 -109.3184082 229.93507324 -108.62304688 228.84863281 C-104.19076111 221.95597118 -104.19076111 221.95597118 -100.58203125 214.61328125 C-98.86017702 210.68065122 -96.77093779 207.27435844 -94.4375 203.6875 C-84.68121535 188.37213005 -75.87014274 172.221327 -67.98828125 155.859375 C-67.67270264 155.20807617 -67.35712402 154.55677734 -67.03198242 153.88574219 C-66.1807956 152.1160068 -65.34379518 150.33946801 -64.5078125 148.5625 C-63 146 -63 146 -60 145 C-59.2855838 143.01655503 -58.63249533 141.0110679 -58 139 C-56.50961071 135.80750115 -54.86492626 132.69349702 -53.25 129.5625 C-33.20532712 89.95853794 -16.21744413 48.22312901 -2.65991211 5.95825195 C-1.09479162 1.09479162 -1.09479162 1.09479162 0 0 Z " fill="#707070" transform="translate(793,433)"/>
<path d="M0 0 C2.14757652 0.74397804 2.14757652 0.74397804 4.796875 0.9609375 C9.2031026 1.88635046 12.67261126 3.81951917 16.5703125 6.0234375 C17.35986328 6.46751953 18.14941406 6.91160156 18.96289062 7.36914062 C52.58431055 26.77133211 71.49038226 59.55901062 81.69140625 96.125 C84.56134078 107.1463599 86.39033966 118.39379426 88.0703125 129.6484375 C88.20453613 130.53563477 88.33875977 131.42283203 88.47705078 132.33691406 C92.9910042 164.1187014 90.95594096 197.88133786 87.0703125 229.6484375 C86.9878125 230.33194275 86.9053125 231.015448 86.8203125 231.71966553 C82.17032758 269.93114017 73.37208655 307.67616687 62.3203125 344.5234375 C62.05081787 345.42626465 61.78132324 346.3290918 61.50366211 347.25927734 C60.27027202 351.25611457 58.92896391 355.08528984 57.171875 358.8828125 C54.62182211 364.43342762 52.78998968 370.2078658 50.86947632 375.99975586 C36.91085276 417.90026942 18.65707191 458.12057306 -0.9296875 497.6484375 C-1.26838867 498.43057617 -1.60708984 499.21271484 -1.95605469 500.01855469 C-2.9296875 501.6484375 -2.9296875 501.6484375 -5.9296875 502.6484375 C-4.27881616 497.49837709 -2.48928457 492.44430628 -0.51171875 487.41015625 C15.30043556 447.14388943 27.06405341 403.48174998 27.2734375 359.953125 C27.28045181 358.97050186 27.28746613 357.98787872 27.29469299 356.97547913 C27.31208676 353.82475135 27.31854447 350.67421151 27.3203125 347.5234375 C27.32098724 346.44708038 27.32166199 345.37072327 27.32235718 344.26174927 C27.30667073 328.52824012 26.98989374 313.15553629 24.0703125 297.6484375 C23.89338867 296.68873047 23.71646484 295.72902344 23.53417969 294.74023438 C17.19287362 261.2923091 5.49431483 227.56408739 -15.9296875 200.6484375 C-16.36249023 200.1028418 -16.79529297 199.55724609 -17.24121094 198.99511719 C-45.19819564 164.13567753 -84.30192159 142.21483316 -128.8374176 136.85339355 C-132.18465934 136.52550208 -135.53030304 136.44730474 -138.890625 136.41015625 C-139.63014908 136.4003624 -140.36967316 136.39056854 -141.13160706 136.38047791 C-167.04599618 136.10856049 -191.09892696 138.88178131 -215.9296875 146.6484375 C-216.75597656 146.90463867 -217.58226562 147.16083984 -218.43359375 147.42480469 C-253.37314833 158.45761966 -285.15230614 177.21950057 -313.9296875 199.6484375 C-314.87328125 200.37804687 -315.816875 201.10765625 -316.7890625 201.859375 C-321.81202481 205.80598824 -326.60058914 209.96488554 -331.3125 214.27734375 C-332.73801924 215.56882163 -334.16966372 216.85413141 -335.63012695 218.10595703 C-341.13474271 222.82899712 -346.31074511 227.84331363 -351.43823242 232.97167969 C-352.85637034 234.38763697 -354.28265415 235.79542039 -355.70898438 237.203125 C-361.89287477 243.37412334 -367.47953696 249.82803782 -372.9296875 256.6484375 C-373.86465231 257.75010844 -374.80598868 258.84645554 -375.7578125 259.93359375 C-386.87971618 272.68790588 -396.38883098 286.69462668 -405.9296875 300.6484375 C-406.2596875 299.9884375 -406.5896875 299.3284375 -406.9296875 298.6484375 C-405.99951172 296.71020508 -405.99951172 296.71020508 -404.484375 294.29296875 C-403.91251465 293.37596191 -403.3406543 292.45895508 -402.75146484 291.51416016 C-401.78781006 290.00281494 -401.78781006 290.00281494 -400.8046875 288.4609375 C-400.14033691 287.4095459 -399.47598633 286.3581543 -398.79150391 285.27490234 C-386.3200921 265.6940186 -373.26221682 246.42242689 -359.47314453 227.74511719 C-357.80070797 225.47322773 -356.14396897 223.19037057 -354.48828125 220.90625 C-347.3798734 211.13280024 -340.00791455 201.64460927 -332.31054688 192.32910156 C-330.44749205 190.0615504 -328.62531414 187.76262403 -326.8046875 185.4609375 C-323.31441798 181.08156774 -319.70660844 176.80943042 -316.07470703 172.54760742 C-313.05466297 168.99871497 -310.10252976 165.4033387 -307.1796875 161.7734375 C-304.15553312 158.05512668 -301.02260673 154.62055631 -297.578125 151.29296875 C-295.92703619 149.64579248 -294.43326623 147.93059808 -292.9296875 146.1484375 C-288.69158944 141.21683248 -284.02623834 136.7170954 -279.40698242 132.14746094 C-276.22697594 128.98917851 -273.12093385 125.83871709 -270.2421875 122.3984375 C-266.96933973 118.51981841 -263.23843871 115.1761112 -259.47412109 111.78857422 C-256.33355632 108.95784974 -253.31591539 106.05686853 -250.3671875 103.0234375 C-246.4013763 99.00046145 -242.14559957 95.48410847 -237.73828125 91.95703125 C-234.93427127 89.65220525 -232.27538949 87.24427724 -229.6171875 84.7734375 C-223.34045388 79.01235622 -216.69407182 73.81704849 -209.9296875 68.6484375 C-209.30964844 68.17148438 -208.68960938 67.69453125 -208.05078125 67.203125 C-153.58523009 25.37537113 -71.49330902 -25.28090395 0 0 Z " fill="#2A2A2A" transform="translate(735.9296875,76.3515625)"/>
<path d="M0 0 C1.26428801 3.79286404 0.52572232 4.79796937 -0.9921875 8.43359375 C-1.44561523 9.5426709 -1.89904297 10.65174805 -2.36621094 11.79443359 C-2.86411133 12.99664551 -3.36201172 14.19885742 -3.875 15.4375 C-16.70027191 47.1627931 -25.65781863 80.01900932 -30 114 C-30.08613556 114.65258789 -30.17227112 115.30517578 -30.26101685 115.97753906 C-32.03479777 129.69921838 -32.36213746 143.30056971 -32.3125 157.125 C-32.31034485 158.20638245 -32.3081897 159.28776489 -32.30596924 160.4019165 C-32.25568882 176.12399445 -31.95169521 191.51162104 -29 207 C-28.80664062 208.05590332 -28.61328125 209.11180664 -28.4140625 210.19970703 C-18.72484151 261.74845607 5.31927913 309.13545349 48.93945312 339.59472656 C71.231737 354.79785286 96.38476567 363.37311504 123 367 C123.92554688 367.13277344 124.85109375 367.26554687 125.8046875 367.40234375 C190.71811729 374.97212071 256.94625446 345.13319342 307 306 C307.89847656 305.30390625 308.79695313 304.6078125 309.72265625 303.890625 C327.41071789 289.97026429 343.98928408 274.77150372 359 258 C360.16402344 256.74316406 360.16402344 256.74316406 361.3515625 255.4609375 C374.83407529 240.8350314 386.79623425 224.41114983 398 208 C398.33 208.66 398.66 209.32 399 210 C398.18994141 211.75805664 398.18994141 211.75805664 396.8515625 213.91015625 C396.34939209 214.72258789 395.84722168 215.53501953 395.32983398 216.37207031 C394.76723877 217.25991211 394.20464355 218.14775391 393.625 219.0625 C393.04500244 219.98772461 392.46500488 220.91294922 391.86743164 221.86621094 C384.54544332 233.44498999 376.80177019 244.74111158 369 256 C368.43893555 256.80985352 367.87787109 257.61970703 367.29980469 258.45410156 C353.10019081 278.8855209 338.26625654 298.93040566 322.3984375 318.1015625 C320.49637618 320.40014474 318.60817615 322.70818328 316.7265625 325.0234375 C310.54627409 332.60906938 304.29103837 340.05250583 297.59765625 347.19140625 C295.55419157 349.40080641 293.56145587 351.63315619 291.5859375 353.90234375 C281.71199614 365.22962706 271.17161962 375.92882176 260.5625 386.5625 C260.04857697 387.07901123 259.53465393 387.59552246 259.00515747 388.12768555 C253.7170349 393.43682081 248.40226166 398.66390436 242.70532227 403.53979492 C240.30988073 405.59092389 238.00374915 407.73526128 235.6875 409.875 C231.27781527 413.8925787 226.76577023 417.72665604 222.12109375 421.46875 C219.77711049 423.35804498 217.46463263 425.28147352 215.16015625 427.21875 C200.4996531 439.50709272 185.08171761 450.64737054 169 461 C168.24444824 461.48936035 167.48889648 461.9787207 166.71044922 462.48291016 C127.10345107 488.0053005 81.38397577 509.43140741 33.375 509.375 C32.07626953 509.37483887 30.77753906 509.37467773 29.43945312 509.37451172 C17.47136093 509.23386739 5.91860661 507.77877709 -5.40625 503.8046875 C-7.95110825 502.68715546 -7.95110825 502.68715546 -10 504 C-11.65722656 503.35424805 -11.65722656 503.35424805 -13.640625 502.26171875 C-14.37434326 501.85928955 -15.10806152 501.45686035 -15.86401367 501.04223633 C-16.65138916 500.59517334 -17.43876465 500.14811035 -18.25 499.6875 C-19.06122314 499.22819092 -19.87244629 498.76888184 -20.70825195 498.2956543 C-54.63497202 478.77886744 -75.30006376 448.62293771 -85.65625 411.13671875 C-88.90795388 398.8691946 -91.41752216 386.58849237 -93 374 C-93.1544458 372.88890869 -93.1544458 372.88890869 -93.31201172 371.75537109 C-103.2217946 298.81749049 -88.77532183 210.28496525 -61.109375 142.29296875 C-58.79706913 136.60054798 -56.81061042 130.8061431 -54.79971313 125.00186157 C-41.87410266 87.84913554 -26.23222715 51.78034632 -9.125 16.375 C-8.6044101 15.29481598 -8.6044101 15.29481598 -8.07330322 14.19281006 C-7.09848871 12.17536027 -6.11718056 10.16124021 -5.1328125 8.1484375 C-4.57480957 7.00552246 -4.01680664 5.86260742 -3.44189453 4.68505859 C-2 2 -2 2 0 0 Z " fill="#2A2A2A" transform="translate(293,441)"/>
<path d="M0 0 C0.33 0.66 0.66 1.32 1 2 C-0.61077245 5.37626603 -2.74032806 8.473469 -4.75 11.625 C-5.30171875 12.5221875 -5.8534375 13.419375 -6.421875 14.34375 C-7.22625 15.61605469 -7.22625 15.61605469 -8.046875 16.9140625 C-8.78695801 18.0889624 -8.78695801 18.0889624 -9.54199219 19.28759766 C-10.02313477 19.85269043 -10.50427734 20.4177832 -11 21 C-11.99 21 -12.98 21 -14 21 C-12.62416025 18.0884719 -11.04666973 15.51234472 -9.1796875 12.890625 C-8.64472656 12.13652344 -8.10976563 11.38242187 -7.55859375 10.60546875 C-7.00300781 9.82816406 -6.44742188 9.05085937 -5.875 8.25 C-5.31167969 7.45722656 -4.74835937 6.66445313 -4.16796875 5.84765625 C-2.78111545 3.89665924 -1.39172386 1.94752412 0 0 Z " fill="#2A2A2A" transform="translate(691,649)"/>
<path d="M0 0 C0.33 0.66 0.66 1.32 1 2 C0.10375977 4.33837891 0.10375977 4.33837891 -1.30859375 7.2265625 C-1.80810547 8.2578125 -2.30761719 9.2890625 -2.82226562 10.3515625 C-3.35529297 11.43179687 -3.88832031 12.51203125 -4.4375 13.625 C-4.96666016 14.71296875 -5.49582031 15.8009375 -6.04101562 16.921875 C-7.35365595 19.61810918 -8.67357633 22.31052681 -10 25 C-10.66 24.67 -11.32 24.34 -12 24 C-10.42195846 18.39523177 -7.73583615 13.64949374 -4.875 8.625 C-4.17310547 7.37783203 -4.17310547 7.37783203 -3.45703125 6.10546875 C-2.30929451 4.06765046 -1.15686718 2.03264431 0 0 Z " fill="#E5E5E5" transform="translate(305,417)"/>
<path d="M0 0 C0.66 0.33 1.32 0.66 2 1 C0.87851562 2.51980469 0.87851562 2.51980469 -0.265625 4.0703125 C-1.26048704 5.4218232 -2.25527476 6.77338861 -3.25 8.125 C-3.74113281 8.79015625 -4.23226563 9.4553125 -4.73828125 10.140625 C-7.59857459 14.03062394 -10.35657899 17.95934217 -13 22 C-13.33 21.34 -13.66 20.68 -14 20 C-13.15136719 18.15234375 -13.15136719 18.15234375 -11.796875 15.9375 C-11.31089844 15.14085937 -10.82492187 14.34421875 -10.32421875 13.5234375 C-9.80472656 12.69070313 -9.28523438 11.85796875 -8.75 11 C-7.99396484 9.75089844 -7.99396484 9.75089844 -7.22265625 8.4765625 C-3.39019574 2.26013049 -3.39019574 2.26013049 0 0 Z " fill="#2A2A2A" transform="translate(343,355)"/>
</svg>
