<?xml version="1.0" encoding="UTF-8"?>
<svg version="1.1" xmlns="http://www.w3.org/2000/svg" width="1024" height="1024">
<path d="M0 0 C2.80502823 -0.00252198 5.61004145 -0.00953971 8.41506219 -0.01631981 C14.4825214 -0.02861266 20.54990319 -0.02993138 26.61737061 -0.02376938 C35.64053214 -0.01463041 44.66362283 -0.02274857 53.68677896 -0.03406062 C69.80884441 -0.0536756 85.93087763 -0.05608486 102.05295217 -0.05086542 C116.16456048 -0.0462994 130.27615607 -0.04691843 144.38776398 -0.05270576 C146.28433619 -0.05346265 148.18090841 -0.05421863 150.07748063 -0.05497371 C152.93582786 -0.05611897 155.7941751 -0.05726885 158.65252232 -0.05843295 C185.20937778 -0.06913011 211.76622903 -0.07387129 238.32308578 -0.06596279 C239.82311491 -0.06551703 239.82311491 -0.06551703 241.35344765 -0.06506227 C249.47309179 -0.0626136 257.59273589 -0.06000188 265.71237998 -0.05737813 C297.37551387 -0.04727798 329.0385947 -0.0556299 360.70172119 -0.07887268 C396.31910557 -0.10497617 431.93645802 -0.11778495 467.55385232 -0.11068493 C471.3555452 -0.10996893 475.15723808 -0.10929453 478.95893097 -0.10864449 C480.36292222 -0.10838977 480.36292222 -0.10838977 481.79527693 -0.10812991 C495.89070854 -0.1058322 509.9861104 -0.11377866 524.08153534 -0.12693596 C540.12193651 -0.14188258 556.16226819 -0.14264315 572.20266792 -0.12486505 C581.16490577 -0.11533933 590.1269813 -0.11666012 599.08920813 -0.13409974 C605.09311458 -0.14465831 611.09689853 -0.14039283 617.10079309 -0.1246197 C620.51007092 -0.11606174 623.91877752 -0.11564205 627.32807729 -0.12888902 C682.74472337 -0.32874885 731.15997398 19.23775442 770.753479 57.95018005 C797.53398807 85.3953149 815.0673189 120.78501826 821.940979 158.38768005 C822.10994615 159.23170588 822.2789133 160.07573171 822.45300066 160.94533408 C824.67899113 173.77504359 824.22482281 186.74844002 824.20840454 199.72517395 C824.21104227 202.52502034 824.21666714 205.32485904 824.22213519 208.12470114 C824.23240264 214.19942171 824.23528466 220.27411042 824.23322296 226.34883881 C824.23016444 235.38290491 824.23851583 244.41693595 824.24897221 253.45099523 C824.26828721 270.52881045 824.27393953 287.60661365 824.27508633 304.68443851 C824.27600649 317.87802827 824.28012878 331.07161334 824.28648758 344.26520157 C824.28828276 348.06721452 824.29006239 351.86922748 824.29183733 355.67124045 C824.29227943 356.61652313 824.29272153 357.56180582 824.29317702 358.53573343 C824.3054812 385.11615468 824.31337859 411.6965743 824.31249046 438.27699852 C824.31245931 439.27861403 824.31242815 440.28022954 824.31239605 441.31219703 C824.31222984 446.38842787 824.31203176 451.46465871 824.31182663 456.54088955 C824.3117668 458.05303577 824.3117668 458.05303577 824.31170575 459.59573039 C824.31162488 461.63434949 824.31154128 463.6729686 824.31145497 465.7115877 C824.31023005 497.41402095 824.32523359 529.11641139 824.3526001 560.8188324 C824.38335831 596.46473673 824.4005303 632.11061293 824.39867365 667.75653136 C824.3985244 671.56168787 824.39842698 675.36684437 824.39836502 679.17200089 C824.39833006 680.57731064 824.39833006 680.57731064 824.39829439 682.01101049 C824.39823298 697.05207707 824.41097504 712.09310632 824.42822955 727.13416182 C824.44522943 742.26688781 824.44712593 757.39955951 824.43401091 772.53228979 C824.4266504 781.50783093 824.43019236 790.48320654 824.44989559 799.45872995 C824.46197333 805.47171101 824.45921889 811.48457332 824.44495459 817.49754914 C824.43725638 820.91212078 824.4377173 824.32611764 824.45186929 827.74070565 C824.65486958 880.23467078 807.37611592 929.05081647 770.35894775 966.9697113 C769.22219015 968.11159377 768.08294612 969.25100748 766.940979 970.38768005 C766.41713623 970.91410095 765.89329346 971.44052185 765.35357666 971.9828949 C742.60001781 994.62171787 713.68177277 1010.01612415 682.940979 1018.70018005 C682.136604 1018.93076111 681.332229 1019.16134216 680.503479 1019.39891052 C661.79586603 1024.37177405 643.12810861 1024.82232944 623.88195801 1024.77536011 C621.07692977 1024.77788208 618.27191656 1024.78489982 615.46689582 1024.79167992 C609.39943661 1024.80397277 603.33205481 1024.80529148 597.2645874 1024.79912949 C588.24142587 1024.78999052 579.21833518 1024.79810868 570.19517905 1024.80942073 C554.0731136 1024.82903571 537.95108038 1024.83144497 521.82900584 1024.82622553 C507.71739753 1024.82165951 493.60580194 1024.82227854 479.49419403 1024.82806587 C477.59762181 1024.82882276 475.7010496 1024.82957874 473.80447738 1024.83033382 C470.94613014 1024.83147907 468.08778291 1024.83262896 465.22943569 1024.83379306 C438.67258022 1024.84449022 412.11572898 1024.8492314 385.55887222 1024.8413229 C384.0588431 1024.84087714 384.0588431 1024.84087714 382.52851036 1024.84042237 C374.40886621 1024.83797371 366.28922212 1024.83536199 358.16957803 1024.83273824 C326.50644414 1024.82263809 294.8433633 1024.83099001 263.18023682 1024.85423279 C227.56285244 1024.88033627 191.94549998 1024.89314506 156.32810569 1024.88604504 C152.52641281 1024.88532904 148.72471993 1024.88465464 144.92302704 1024.88400459 C143.51903579 1024.88374988 143.51903579 1024.88374988 142.08668108 1024.88349002 C127.99124946 1024.88119231 113.89584761 1024.88913876 99.80042267 1024.90229607 C83.7600215 1024.91724269 67.71968982 1024.91800325 51.67929009 1024.90022516 C42.71705224 1024.89069944 33.75497671 1024.89202023 24.79274988 1024.90945984 C18.78884343 1024.92001842 12.78505948 1024.91575294 6.78116492 1024.89997981 C3.37188709 1024.89142185 -0.03681951 1024.89100216 -3.44611928 1024.90424912 C-48.11874791 1025.06536072 -92.00380089 1013.14243493 -127.059021 984.38768005 C-127.6139624 983.93280212 -128.16890381 983.47792419 -128.74066162 983.00926208 C-167.8667842 950.7312894 -193.7428363 906.03534515 -199.7795312 855.37218446 C-200.74439877 845.06894073 -200.47192731 834.66536966 -200.44670105 824.32865906 C-200.44922303 821.52363082 -200.45624076 818.71861761 -200.46302086 815.91359687 C-200.47531371 809.84613766 -200.47663243 803.77875586 -200.47047043 797.71128845 C-200.46133146 788.68812692 -200.46944962 779.66503623 -200.48076167 770.6418801 C-200.50037665 754.51981465 -200.50278591 738.39778143 -200.49756647 722.27570689 C-200.49300045 708.16409858 -200.49361948 694.05250299 -200.49940681 679.94089508 C-200.5001637 678.04432286 -200.50091968 676.14775065 -200.50167476 674.25117843 C-200.50282002 671.39283119 -200.5039699 668.53448396 -200.505134 665.67613673 C-200.51583116 639.11928127 -200.52057234 612.56243003 -200.51266384 586.00557327 C-200.51236667 585.00555386 -200.51206949 584.00553444 -200.51176332 582.97521141 C-200.50931465 574.85556726 -200.50670293 566.73592317 -200.50407918 558.61627908 C-200.49397903 526.95314519 -200.50233095 495.29006435 -200.52557373 463.62693787 C-200.55167722 428.00955349 -200.564486 392.39220103 -200.55738598 356.77480674 C-200.55666998 352.97311386 -200.55599558 349.17142098 -200.55534554 345.36972809 C-200.55517573 344.43373392 -200.55500592 343.49773975 -200.55483096 342.53338213 C-200.55253325 328.43795051 -200.56047971 314.34254866 -200.57363701 300.24712372 C-200.58858363 284.20672255 -200.5893442 268.16639087 -200.5715661 252.12599114 C-200.56204038 243.16375329 -200.56336117 234.20167776 -200.58080079 225.23945093 C-200.59135936 219.23554448 -200.58709388 213.23176053 -200.57132075 207.22786597 C-200.56276279 203.81858814 -200.5623431 200.40988153 -200.57559007 197.00058177 C-200.77539292 141.59973456 -181.1795298 93.13859873 -142.496521 53.57518005 C-119.27573003 30.91671594 -90.00437354 14.65121188 -58.809021 5.95018005 C-58.02059814 5.72757507 -57.23217529 5.50497009 -56.41986084 5.27561951 C-37.76588032 0.42633148 -19.16907451 -0.04678123 0 0 Z " fill="#2A2A2A" transform="translate(200.05902099609375,-0.3876800537109375)"/>
<path d="M0 0 C1.53248368 1.34877901 3.03300595 2.73613095 4.4765625 4.1796875 C8.35460775 3.8648462 12.0307451 3.06297919 15.8203125 2.20703125 C40.69572258 -3.22538811 69.57713951 -3.37960193 94.4765625 2.1796875 C95.38680176 2.37836426 96.29704102 2.57704102 97.23486328 2.78173828 C134.12342213 11.06816367 166.19944831 29.17217101 193.4765625 55.1796875 C194.64638672 56.27023438 194.64638672 56.27023438 195.83984375 57.3828125 C222.96249178 83.3974305 241.19051632 120.6470352 248.4765625 157.1796875 C248.75584595 158.53030273 248.75584595 158.53030273 249.04077148 159.90820312 C250.78667928 169.515742 250.8146023 179.07398211 250.79223633 188.80566406 C250.78909873 191.64688352 250.81253254 194.48703511 250.83789062 197.328125 C250.88305905 210.75142459 250.76341845 225.31911964 246.4765625 238.1796875 C245.87513386 241.32323722 245.79180587 244.04121962 246.4765625 247.1796875 C248.06709673 249.29884046 249.89333234 250.88420431 251.87109375 252.6484375 C273.47336628 273.63535294 287.86926954 304.48932547 295.4765625 333.1796875 C295.71431396 333.99598633 295.95206543 334.81228516 296.19702148 335.65332031 C303.82563425 362.25056741 303.58012873 391.23994918 298.7265625 418.3046875 C298.53732712 419.36222733 298.53732712 419.36222733 298.3442688 420.44113159 C295.91766134 433.69722046 292.30678011 446.03220708 286.4765625 458.1796875 C285.76758064 459.74130338 285.0607441 461.30389414 284.35546875 462.8671875 C276.71023659 479.62046363 267.75984101 495.36942007 255.4765625 509.1796875 C254.76113281 510.00339844 254.04570313 510.82710937 253.30859375 511.67578125 C229.06713023 539.1780434 196.61307121 562.03271566 160.515625 570.5390625 C158.27871814 571.06909564 158.27871814 571.06909564 156.4765625 573.1796875 C155.68218431 575.48862191 155.07979121 577.82415771 154.453125 580.18359375 C153.37190031 583.50079108 152.01054037 586.5985611 150.56933594 589.77270508 C149.49963142 592.12887507 148.46326067 594.4971942 147.43359375 596.87109375 C138.44310869 617.39807893 127.83772283 635.53807005 112.484375 652.01953125 C110.60168256 654.04507389 108.81919189 656.12673141 107.0390625 658.2421875 C99.21765885 667.15039211 89.85050674 674.07295038 80.24804688 680.91357422 C78.62296553 682.07505049 77.01005822 683.25351106 75.3984375 684.43359375 C74.51671875 685.07167969 73.635 685.70976563 72.7265625 686.3671875 C71.96859375 686.91761719 71.210625 687.46804688 70.4296875 688.03515625 C68.4765625 689.1796875 68.4765625 689.1796875 65.4765625 689.1796875 C65.4765625 689.8396875 65.4765625 690.4996875 65.4765625 691.1796875 C56.27977804 695.88311915 47.11075637 700.42329774 37.4765625 704.1796875 C36.58839844 704.53804687 35.70023438 704.89640625 34.78515625 705.265625 C28.38684275 707.74299238 21.98228261 709.25937958 15.25 710.56640625 C12.58116818 710.89582978 12.58116818 710.89582978 11.4765625 712.1796875 C9.71263124 712.46568994 7.93937214 712.69465682 6.1640625 712.8984375 C5.08898437 713.02605469 4.01390625 713.15367187 2.90625 713.28515625 C0.61979167 713.54817708 -1.66666667 713.81119792 -3.953125 714.07421875 C-5.02820313 714.20183594 -6.10328125 714.32945312 -7.2109375 714.4609375 C-8.20480469 714.57501953 -9.19867187 714.68910156 -10.22265625 714.80664062 C-12.48141064 714.94272074 -12.48141064 714.94272074 -13.5234375 716.1796875 C-16.39607806 716.28075624 -19.24417378 716.31938422 -22.1171875 716.3125 C-22.97904663 716.31345673 -23.84090576 716.31441345 -24.72888184 716.31539917 C-26.55476962 716.316081 -28.38065981 716.31422654 -30.20654297 716.31005859 C-33.01144828 716.30471036 -35.81619345 716.31000349 -38.62109375 716.31640625 C-40.39062536 716.31574547 -42.16015686 716.31446431 -43.9296875 716.3125 C-44.77446655 716.31452423 -45.61924561 716.31654846 -46.48962402 716.31863403 C-52.40848719 716.29463781 -52.40848719 716.29463781 -53.5234375 715.1796875 C-55.68640023 714.97036853 -57.8543846 714.81171681 -60.0234375 714.6796875 C-66.41232639 714.29079861 -66.41232639 714.29079861 -67.5234375 713.1796875 C-68.85299375 713.01942849 -70.18780358 712.90207747 -71.5234375 712.8046875 C-75.64968737 712.3888135 -79.17637063 711.40446079 -83.0625 710 C-85.91438534 709.04937155 -88.78462647 708.36610614 -91.7109375 707.6796875 C-96.01736834 706.63306127 -99.63493647 705.35001365 -103.5234375 703.1796875 C-105.17247928 702.47116385 -106.82197316 701.76366296 -108.47436523 701.06298828 C-129.48972426 692.00382363 -129.48972426 692.00382363 -138.5234375 685.1796875 C-139.7324673 684.29604577 -140.94217241 683.41332771 -142.15234375 682.53125 C-151.59942726 675.59292612 -161.21745427 668.48567073 -169.5234375 660.1796875 C-175.1671 659.92426312 -180.68085243 661.68050061 -185.96875 663.4609375 C-192.42569441 665.27757018 -198.91464324 665.35165584 -205.56640625 665.3828125 C-206.53008621 665.38851257 -207.49376617 665.39421265 -208.48664856 665.40008545 C-210.5264884 665.40950426 -212.56634325 665.41605698 -214.60620117 665.41992188 C-217.65637677 665.42951588 -220.70584479 665.46052217 -223.75585938 665.4921875 C-240.70684551 665.58289892 -257.20311831 663.96470255 -273.5234375 659.1796875 C-274.13638672 659.00179687 -274.74933594 658.82390625 -275.38085938 658.640625 C-317.18299082 646.40585482 -353.92791348 620.48583601 -379.5234375 585.1796875 C-379.98588867 584.55094727 -380.44833984 583.92220703 -380.92480469 583.27441406 C-387.5155601 574.26091671 -393.00353158 565.06108875 -397.70507812 554.93408203 C-398.42042738 553.40052006 -399.16487373 551.88059896 -399.9140625 550.36328125 C-407.34837692 534.95354725 -411.03227631 518.64806471 -414.03466797 501.89208984 C-414.42617931 499.71941699 -414.84695821 497.55202629 -415.27734375 495.38671875 C-418.8642682 475.19459161 -418.28124778 450.19090011 -412.421875 430.47265625 C-411.28537959 426.3071535 -411.05693355 423.49916851 -411.5234375 419.1796875 C-413.45671442 416.21216449 -413.45671442 416.21216449 -416.2734375 413.6796875 C-417.29490145 412.6450552 -418.31028744 411.60439583 -419.3203125 410.55859375 C-420.11405273 409.7389917 -420.11405273 409.7389917 -420.92382812 408.90283203 C-435.4360584 393.26984649 -445.53397885 373.77703444 -453.5234375 354.1796875 C-453.9872583 353.07536377 -453.9872583 353.07536377 -454.46044922 351.94873047 C-462.08329084 333.65470754 -466.26335508 314.00787565 -466.5234375 294.1796875 C-466.54776855 293.21369629 -466.57209961 292.24770508 -466.59716797 291.25244141 C-466.98464317 275.27931787 -466.13908446 259.93966866 -463.5234375 244.1796875 C-463.41660645 243.4798877 -463.30977539 242.78008789 -463.19970703 242.05908203 C-457.49723569 204.89469986 -436.06726042 170.95825714 -410.5234375 144.1796875 C-409.49089844 143.08527344 -409.49089844 143.08527344 -408.4375 141.96875 C-403.19121424 136.55115695 -397.46642848 131.8128253 -391.5234375 127.1796875 C-390.96237305 126.74221191 -390.40130859 126.30473633 -389.82324219 125.85400391 C-377.93399655 116.6609176 -365.45575929 109.26603673 -351.7734375 103.0546875 C-351.03657715 102.71630859 -350.2997168 102.37792969 -349.54052734 102.02929688 C-345.46550127 100.23141395 -341.52562769 98.87107163 -337.18359375 97.86328125 C-328.08177481 95.9139519 -328.08177481 95.9139519 -321.16162109 90.22509766 C-319.25745341 86.02872622 -318.21814176 81.6629486 -317.12890625 77.19921875 C-315.50580093 70.55924245 -312.82098785 64.62247764 -309.8359375 58.4921875 C-309.32313232 57.43902344 -308.81032715 56.38585937 -308.28198242 55.30078125 C-301.35228442 41.4478465 -292.72910039 28.82197935 -282.5234375 17.1796875 C-281.45029297 15.9421875 -281.45029297 15.9421875 -280.35546875 14.6796875 C-251.98782721 -17.45357018 -213.99778125 -40.82066031 -171.5234375 -48.8203125 C-170.76724121 -48.96694336 -170.01104492 -49.11357422 -169.23193359 -49.26464844 C-107.07229263 -60.80096177 -47.14862123 -40.59213549 0 0 Z " fill="#707070" transform="translate(594.5234375,179.8203125)"/>
<path d="M0 0 C0.99128906 0.35191406 1.98257813 0.70382812 3.00390625 1.06640625 C23.79365054 9.11147971 39.20736087 24.81562664 50 44 C50.81984375 45.45212891 50.81984375 45.45212891 51.65625 46.93359375 C62.93316559 68.13534576 67.02264808 93.996115 72.875 117.1875 C73.16101074 118.31381836 73.44702148 119.44013672 73.74169922 120.60058594 C76.53272177 131.77473389 78.37231568 142.19959184 78.3125 153.75 C78.30686035 154.89380127 78.3012207 156.03760254 78.29541016 157.21606445 C77.97217371 179.78980952 70.33390042 200.98988533 54.60546875 217.52734375 C45.63610056 226.03950276 34.79464193 231.5356994 23 235 C21.96617187 235.350625 20.93234375 235.70125 19.8671875 236.0625 C1.10221637 240.61158391 -16.77591133 235.36268686 -33 226 C-57.57820871 210.71659611 -71.73139053 185.06533619 -78.36694336 157.58789062 C-79.71737017 152.0187485 -81.22981205 146.50740305 -82.8125 141 C-83.06209473 140.12947998 -83.31168945 139.25895996 -83.56884766 138.36206055 C-84.9755856 133.48169413 -86.41239348 128.61117789 -87.87109375 123.74609375 C-88.18393311 122.69486328 -88.49677246 121.64363281 -88.8190918 120.56054688 C-89.41969274 118.54562758 -90.02619666 116.53245394 -90.63989258 114.52148438 C-93.68913458 104.27447974 -95.36759603 94.26171106 -95.25 83.5625 C-95.24323242 82.65290527 -95.23646484 81.74331055 -95.22949219 80.80615234 C-95.12122617 73.72228166 -94.52484915 66.9319292 -93 60 C-92.75507812 58.82566406 -92.51015625 57.65132813 -92.2578125 56.44140625 C-89.10327 43.02762153 -83.32519563 30.27421996 -74 20 C-73.39671875 19.31679688 -72.7934375 18.63359375 -72.171875 17.9296875 C-54.3008745 -1.17630084 -24.7428351 -8.83926247 0 0 Z " fill="#2A2A2A" transform="translate(617,318)"/>
<path d="M0 0 C1.75130179 1.36795837 3.48053662 2.76460012 5.1875 4.1875 C6.11175781 4.94933594 7.03601563 5.71117187 7.98828125 6.49609375 C33.49965321 28.54949275 40.64196868 60.5666765 48.5859375 91.92578125 C50.16051891 98.13076343 51.8452246 104.30010837 53.59057617 110.45898438 C54.12997659 112.36649822 54.65888668 114.2769687 55.1875 116.1875 C55.36716309 116.82896973 55.54682617 117.47043945 55.73193359 118.13134766 C62.37691565 142.99031741 58.23946733 169.93093885 46 192.3125 C36.93039381 207.11643784 24.19593958 216.7995169 8.1875 223.1875 C7.35863281 223.53683594 6.52976562 223.88617187 5.67578125 224.24609375 C-10.04296586 230.19306087 -28.3863372 228.12291406 -43.578125 221.64453125 C-51.1734093 218.05238922 -57.54114273 213.744144 -63.8125 208.1875 C-64.72902344 207.4140625 -65.64554687 206.640625 -66.58984375 205.84375 C-92.47121532 183.40612746 -98.89618277 149.10904205 -106.77832031 117.34619141 C-107.73225363 113.50215316 -108.70358072 109.6626927 -109.6796875 105.82421875 C-110.22433532 103.67457465 -110.76863318 101.52484183 -111.3125 99.375 C-111.67722412 97.93640625 -111.67722412 97.93640625 -112.04931641 96.46875 C-115.97795424 80.76566076 -116.78211114 62.99710736 -112.8125 47.1875 C-112.57917969 46.12402344 -112.34585937 45.06054688 -112.10546875 43.96484375 C-107.14986742 23.89352694 -95.61250549 6.96880414 -77.8125 -3.8125 C-73.57192737 -6.08830854 -69.28401365 -8.03606946 -64.8125 -9.8125 C-63.9771875 -10.15410156 -63.141875 -10.49570312 -62.28125 -10.84765625 C-41.8883833 -17.78510299 -17.20485871 -12.13447116 0 0 Z " fill="#2A2A2A" transform="translate(417.8125,386.8125)"/>
<path d="M0 0 C3.23605447 0.14304299 4.69523789 0.73063074 7.13378906 2.88598633 C8.18904785 4.09677856 8.18904785 4.09677856 9.265625 5.33203125 C19.7518575 16.87534364 26.51013673 23.19050943 42 25 C44.37322567 25.68731405 46.73110127 26.43196536 49.0625 27.25 C50.02285156 27.58515625 50.98320312 27.9203125 51.97265625 28.265625 C52.64167969 28.50796875 53.31070313 28.7503125 54 29 C54.765625 31.23950195 54.765625 31.23950195 55 34 C53.296875 36.08276367 53.296875 36.08276367 50.75 38.16796875 C37.01812666 50.13912876 30.49388777 59.95646031 27.53637695 78.49243164 C27.01038204 80.95146386 26.22856951 82.81811427 25 85 C22.90234375 85.37890625 22.90234375 85.37890625 20 85 C17.57413495 83.25180263 15.6026441 81.11381158 13.5625 78.9375 C12.97758789 78.34130859 12.39267578 77.74511719 11.79003906 77.13085938 C8.97086731 74.22779312 6.49638658 71.37333637 4.25 68 C0.13441888 62.97948689 -7.7250723 62.07252475 -13.76513672 60.56738281 C-17.22236438 59.68966847 -20.63764459 58.68394827 -24.0625 57.6875 C-26.04146936 57.12430624 -28.0205557 56.56152223 -30 56 C-30.6640625 54.21875 -30.6640625 54.21875 -31 52 C-30.0234375 50.28125 -30.0234375 50.28125 -28.375 48.5 C-27.735625 47.80003906 -27.09625 47.10007812 -26.4375 46.37890625 C-24.60222635 44.58774975 -22.7859723 42.96365306 -20.8125 41.33984375 C-12.04249321 34.019155 -8.63415211 28.2939968 -6 17 C-5.45894665 14.89840398 -4.90372037 12.80103925 -4.34399414 10.7043457 C-3.83987332 8.79137278 -3.36630101 6.8704258 -2.89453125 4.94921875 C-2 2 -2 2 0 0 Z " fill="#707070" transform="translate(358,408)"/>
<path d="M0 0 C2.70596153 1.25554554 3.97899978 2.87116128 5.86743164 5.17822266 C17.9813783 19.11140388 28.32539343 24.53172785 46.54931641 27.39941406 C49.05102539 27.95166016 49.05102539 27.95166016 52.05102539 29.95166016 C52.4621582 32.32250977 52.4621582 32.32250977 52.05102539 34.95166016 C50.55395508 37.01635742 50.55395508 37.01635742 48.47290039 39.01806641 C47.72395508 39.75089844 46.97500977 40.48373047 46.20336914 41.23876953 C45.01420898 42.36508789 45.01420898 42.36508789 43.80102539 43.51416016 C43.0237207 44.26890625 42.24641602 45.02365234 41.44555664 45.80126953 C39.99121034 47.21210974 38.53178256 48.61774437 37.06567383 50.01635742 C36.40083984 50.65500732 35.73600586 51.29365723 35.05102539 51.95166016 C34.34445801 52.56436768 33.63789062 53.1770752 32.90991211 53.80834961 C30.56734746 56.50934449 30.019974 58.70925854 29.19946289 62.17822266 C28.90555664 63.37447266 28.61165039 64.57072266 28.30883789 65.80322266 C28.01750977 67.04845703 27.72618164 68.29369141 27.42602539 69.57666016 C26.83580357 72.04948605 26.23974221 74.52092776 25.63696289 76.99072266 C25.37963379 78.08594238 25.12230469 79.18116211 24.85717773 80.30957031 C24.05102539 82.95166016 24.05102539 82.95166016 22.05102539 84.95166016 C19.07576385 85.36374038 17.63489464 85.39031361 15.20166016 83.56225586 C14.63761475 82.92376709 14.07356934 82.28527832 13.49243164 81.62744141 C12.85885742 80.928125 12.2252832 80.22880859 11.57250977 79.50830078 C10.92604492 78.76773438 10.27958008 78.02716797 9.61352539 77.26416016 C0.74591981 67.31145138 -4.50458874 63.30316089 -17.69897461 60.26416016 C-20.1535353 59.68295071 -22.60674626 59.09600152 -25.05834961 58.50244141 C-26.14083984 58.25147705 -27.22333008 58.0005127 -28.33862305 57.74194336 C-30.94897461 56.95166016 -30.94897461 56.95166016 -32.94897461 54.95166016 C-32.80087872 51.77118682 -32.29226557 50.32048138 -30.1105957 47.9765625 C-29.32249512 47.3367041 -28.53439453 46.6968457 -27.72241211 46.03759766 C-13.75527681 33.94507088 -8.39150782 23.7144858 -5.61474609 5.45336914 C-4.72735584 2.11890345 -3.72287469 -0.09233737 0 0 Z " fill="#707070" transform="translate(579.948974609375,349.04833984375)"/>
<path d="M0 0 C3.3737101 2.05056357 6.22043124 4.44086248 8 8 C8.43540712 12.26196588 8.47065428 15.91749516 6.75 19.875 C4.12335292 23.06450003 1.92280404 24.69239865 -2 26 C-6.15286777 26.39177998 -8.48969587 26.25515206 -12.25 24.375 C-16.35422338 20.83044344 -17.76759618 17.85923054 -18.4375 12.5 C-17.79444627 7.35557016 -15.70599107 4.46227806 -11.8125 1.125 C-7.77643403 -0.48942639 -4.27444209 -0.92637226 0 0 Z " fill="#707070" transform="translate(640,426)"/>
<path d="M0 0 C4.38773175 2.19386588 7.09334197 4.44520582 9 9 C9.64475627 13.97383408 8.91814102 17.3405342 6.26171875 21.48828125 C3.29080588 25.04785797 -0.05033023 25.88129128 -4.5 26.4375 C-8.76506 25.9043675 -10.75593838 24.80168958 -14 22 C-16.59623815 18.19218405 -17.64827614 14.6862407 -17.49609375 10.03125 C-16.56122422 6.20343775 -13.87712858 3.57152684 -11 1 C-7.5259169 -0.73704155 -3.79843331 -0.46041616 0 0 Z " fill="#707070" transform="translate(419,485)"/>
</svg>
