<?xml version="1.0" encoding="UTF-8"?>
<svg version="1.1" xmlns="http://www.w3.org/2000/svg" width="1001" height="1001">
<path d="M0 0 C0.66 0 1.32 0 2 0 C2 1.65 2 3.3 2 5 C3.07946899 4.99777939 4.15893799 4.99555878 5.27111816 4.99327087 C15.50856903 4.97288504 25.74601571 4.95795412 35.98348236 4.94818783 C41.24501907 4.94299791 46.50653922 4.93597205 51.76806641 4.92456055 C56.85796773 4.91359198 61.94785326 4.90769396 67.0377655 4.90512276 C68.96714018 4.90329342 70.89651412 4.89972203 72.82588196 4.89426994 C108.24796273 4.79827154 108.24796273 4.79827154 115.71484375 11.55078125 C120.69093026 16.63575368 123.46982982 22.54577706 126.421875 28.92578125 C127.79294486 31.59665249 128.86466137 33.00784734 131 35 C131.6875 37.6875 131.6875 37.6875 132 40 C132.66 40 133.32 40 134 40 C134.4021875 41.3921875 134.4021875 41.3921875 134.8125 42.8125 C135.96889563 45.91650933 136.71895449 46.81399806 139 49 C139.27070312 49.6909375 139.54140625 50.381875 139.8203125 51.09375 C141.36396209 54.89664832 143.34966546 58.37330834 145.375 61.9375 C145.76171875 62.62779297 146.1484375 63.31808594 146.546875 64.02929688 C148.34916497 67.21959203 150.18549741 70.31488761 152.2890625 73.31640625 C154 76 154 76 154 79 C154.66 79 155.32 79 156 79 C156.37125 79.78375 156.7425 80.5675 157.125 81.375 C159.05881539 85.26113618 161.33279795 88.93296764 163.59765625 92.6328125 C164.8344675 94.72057746 165.9285066 96.82489995 167 99 C173.29881934 99.02541101 179.59762539 99.04289254 185.89648438 99.05493164 C188.03809096 99.05995204 190.17969414 99.06676969 192.32128906 99.07543945 C195.40430546 99.08760549 198.48727643 99.09325133 201.5703125 99.09765625 C202.52366486 99.10281754 203.47701721 99.10797882 204.45925903 99.11329651 C209.09092165 99.11368501 213.44357251 98.95837521 218 98 C218 98.66 218 99.32 218 100 C218.50405869 99.83766876 219.00811737 99.67533752 219.52745056 99.50808716 C222.87277997 98.8206514 226.16150634 98.86093445 229.56079102 98.87060547 C230.7042653 98.86802372 230.7042653 98.86802372 231.87084007 98.86538982 C234.41521689 98.86104332 236.9595285 98.86401117 239.50390625 98.8671875 C241.31230187 98.86604433 243.12069731 98.86456719 244.92909241 98.86277771 C249.79759249 98.85975657 254.66605811 98.86401181 259.53455353 98.87082291 C262.55556713 98.87499044 265.57658002 98.87795488 268.59759521 98.88070679 C294.16563113 98.90707373 319.73496576 98.96761429 345.30148315 99.26446533 C348.17217053 99.29769155 351.04280475 99.32456893 353.91360474 99.34588623 C357.87237609 99.3760596 361.83059192 99.43053418 365.7890625 99.48828125 C367.50948509 99.49788124 367.50948509 99.49788124 369.2646637 99.50767517 C375.95841636 99.63297952 381.35001186 100.07512111 386.75 104.40234375 C390.68925566 109.2402421 393.780899 114.44992292 396.8203125 119.88964844 C398.81350841 123.45529112 400.82604665 127.01001704 402.83569336 130.56640625 C403.96117905 132.55991462 405.0844967 134.55464906 406.20532227 136.55078125 C409.29870118 142.04845483 412.47122703 147.47275763 415.81616211 152.82177734 C416.94750791 154.90341628 417.54989121 156.68524887 418 159 C418.33 157.35 418.66 155.7 419 154 C421 156 421 156 421 159 C421.66 159.33 422.32 159.66 423 160 C422.01 160.33 421.02 160.66 420 161 C420.33 161.99 420.66 162.98 421 164 C423.01508358 164.73323796 423.01508358 164.73323796 425 165 C424.34 165.33 423.68 165.66 423 166 C423.48210938 166.72445312 423.96421875 167.44890625 424.4609375 168.1953125 C425.09257813 169.16210938 425.72421875 170.12890625 426.375 171.125 C427.00148438 172.07632813 427.62796875 173.02765625 428.2734375 174.0078125 C429.97530746 176.95720704 430.9281308 179.78439239 432 183 C432.66 183.33 433.32 183.66 434 184 C435.33448264 186.33608109 436.5911478 188.66830725 437.8125 191.0625 C439.99112798 195.30368151 442.12232763 199.30734295 445 203.125 C448.29455436 208.3781726 448.16188858 214.06512596 447 220 C444.64258174 225.92364709 440.92613959 231.17255519 437.35546875 236.4140625 C433.73939004 241.81212812 433.39255064 245.431235 434.5 251.9375 C434.665 252.618125 434.83 253.29875 435 254 C433.35 254.33 431.7 254.66 430 255 C430 255.99 430 256.98 430 258 C428.35 258.33 426.7 258.66 425 259 C425.33 259.99 425.66 260.98 426 262 C425.00390625 264.26171875 425.00390625 264.26171875 423.5625 266.6875 C423.08941406 267.49574219 422.61632812 268.30398438 422.12890625 269.13671875 C421.75636719 269.75160156 421.38382813 270.36648438 421 271 C419.68 270.67 418.36 270.34 417 270 C417.061875 271.670625 417.061875 271.670625 417.125 273.375 C417 277 417 277 415 279 C414.67 278.34 414.34 277.68 414 277 C412.67283643 279.17969233 411.36359678 281.36731621 410.0625 283.5625 C409.50272461 284.47612305 409.50272461 284.47612305 408.93164062 285.40820312 C406.45189404 289.63047433 405.53751838 293.06570207 405 298 C404.195625 299.2375 404.195625 299.2375 403.375 300.5 C401.48821145 303.93052463 402.448221 306.20651935 403 310 C401.53125 312.21484375 401.53125 312.21484375 400 314 C401.72678758 317.00137521 403.45687227 320.00083769 405.1875 323 C405.67025391 323.83917969 406.15300781 324.67835938 406.65039062 325.54296875 C409.32462285 330.17351851 412.07168283 334.73995401 414.92553711 339.26171875 C416.28260887 341.45720863 417.49445656 343.71176526 418.6875 346 C421.73245624 351.66854777 425.12152547 357.09101486 428.57299805 362.51757812 C430.54145852 365.62055492 432.43633735 368.66841247 434 372 C434.63808594 373.24136719 434.63808594 373.24136719 435.2890625 374.5078125 C435.72992187 375.37148438 436.17078125 376.23515625 436.625 377.125 C437.29402344 378.42824219 437.29402344 378.42824219 437.9765625 379.7578125 C439 382 439 382 439 384 C439.99 384.33 440.98 384.66 442 385 C442 385.66 442 386.32 442 387 C442.66 387.66 443.32 388.32 444 389 C444.74848506 390.31121471 445.45377483 391.64760558 446.125 393 C446.47820313 393.70125 446.83140625 394.4025 447.1953125 395.125 C448 397 448 397 448 399 C448.66 399.33 449.32 399.66 450 400 C451.09936066 401.86297064 452.12899071 403.76728674 453.125 405.6875 C455.78418448 410.7165853 458.46542608 415.72654465 461.25 420.6875 C461.57887207 421.28715576 461.90774414 421.88681152 462.24658203 422.50463867 C463.95613251 425.5332221 465.04352023 427.02901349 468 429 C470.2477975 426.94766315 471.0022242 425.99332739 472 423 C472.66 423 473.32 423 474 423 C476.125 427.625 476.125 427.625 475 431 C473.68 431 472.36 431 471 431 C470.34 431.66 469.68 432.32 469 433 C469.37511719 433.60585938 469.75023437 434.21171875 470.13671875 434.8359375 C472.68350581 439.00573999 475.1340993 443.15626951 477.25 447.5625 C479.89752723 452.98483943 482.96823458 458.12589599 486.04785156 463.30957031 C489.09439611 468.44309996 492.0759659 473.60820063 495 478.8125 C495.56025879 479.80757568 495.56025879 479.80757568 496.13183594 480.82275391 C497.0961169 482.5439196 498.04868203 484.27163567 499 486 C499.40605469 486.66644531 499.81210937 487.33289063 500.23046875 488.01953125 C501.38230053 490.9838902 501.3022877 493.70918663 501.3125 496.875 C501.32925781 498.06867188 501.34601562 499.26234375 501.36328125 500.4921875 C500.97040185 504.28579715 499.89932304 506.7225402 498 510 C497.34 510 496.68 510 496 510 C496.33 510.99 496.66 511.98 497 513 C496.01 513.66 495.02 514.32 494 515 C492.65542382 517.53617772 492.65542382 517.53617772 491.5 520.4375 C490.02630091 523.98476927 488.80285698 526.39017725 486 529 C484.80972016 531.59915538 484.80972016 531.59915538 484 534 C483.34 534 482.68 534 482 534 C481.89042969 534.59167969 481.78085937 535.18335938 481.66796875 535.79296875 C480.75281262 540.35386882 479.91149857 544.23931435 477 548 C476.34 548 475.68 548 475 548 C474.34 549.65 473.68 551.3 473 553 C472.34 553 471.68 553 471 553 C470.814375 554.1446875 470.814375 554.1446875 470.625 555.3125 C470 558 470 558 468 561 C467.61500109 562.65549531 467.27206865 564.3222433 467 566 C466.071875 566.061875 466.071875 566.061875 465.125 566.125 C464.42375 566.41375 463.7225 566.7025 463 567 C461.73751094 569.87064083 461.73751094 569.87064083 461 573 C460.67 573.99 460.34 574.98 460 576 C459.34 576 458.68 576 458 576 C457.67 578.31 457.34 580.62 457 583 C456.34 583 455.68 583 455 583 C454.66226563 583.71027344 454.32453125 584.42054688 453.9765625 585.15234375 C453.53054688 586.07144531 453.08453125 586.99054687 452.625 587.9375 C452.18414063 588.85402344 451.74328125 589.77054688 451.2890625 590.71484375 C450 593 450 593 448 594 C447.30959426 595.65697379 446.6469365 597.3255761 446 599 C444.5 601.8125 444.5 601.8125 443 604 C442.34 604 441.68 604 441 604 C440.835 604.598125 440.67 605.19625 440.5 605.8125 C438.18842855 609.1835417 434.81494938 610.02174814 431 611 C427.66885779 611.3299448 424.39690625 611.24120002 421.05493164 611.1184082 C420.09286301 611.09635818 419.13079437 611.07430817 418.13957214 611.05158997 C416.06278349 611.00356455 413.98613246 610.94925427 411.90965462 610.8892765 C407.48555865 610.76879283 403.06116351 610.70335058 398.63601589 610.63427258 C390.41059245 610.50493435 382.18701846 610.35209649 373.96411133 610.10864258 C368.22954097 609.9409712 362.49731002 609.84232286 356.76058769 609.78853416 C354.58206028 609.75523744 352.40376195 609.69652468 350.2266407 609.61147499 C339.20284662 608.72129551 339.20284662 608.72129551 329.21284103 612.35171127 C325.79671604 616.10892686 323.87594367 620.32469831 322 625 C321.54750381 625.97290482 321.09500763 626.94580963 320.62879944 627.94819641 C319.96125978 629.38920363 319.32978129 630.84809833 318.75390625 632.328125 C318 634 318 634 316 636 C315.10493418 637.54915237 314.21431177 639.10100841 313.34375 640.6640625 C310.93883136 644.84470595 308.35413985 648.91816414 305.8046875 653.01171875 C304.40754113 655.3251754 303.16262282 657.56864196 302 660 C299.66666667 664.66666667 297.33333333 669.33333333 295 674 C294.34 674 293.68 674 293 674 C292.9175 674.53625 292.835 675.0725 292.75 675.625 C292 678 292 678 289.875 681.0625 C289.25625 682.031875 288.6375 683.00125 288 684 C288.33 684.99 288.66 685.98 289 687 C287.92745123 689.51698632 286.45196548 691.66805545 285 694 C283.68 694 282.36 694 281 694 C281.185625 695.423125 281.185625 695.423125 281.375 696.875 C281.41942869 702.28419279 278.22520495 706.84733974 275 711 C274.34 711 273.68 711 273 711 C273.66 711.33 274.32 711.66 275 712 C274.67 712.99 274.34 713.98 274 715 C272.68 715 271.36 715 270 715 C269.34 716.65 268.68 718.3 268 720 C267.34 720 266.68 720 266 720 C265.9071875 720.99 265.9071875 720.99 265.8125 722 C264.85941221 725.51909338 263.25538141 728.01800713 261.25390625 731.03515625 C259.95876429 732.98247873 259.95876429 732.98247873 258.96484375 735.12109375 C258 737 258 737 256 739 C255.29289322 740.64991582 254.62056011 742.31562256 254 744 C253.34 744 252.68 744 252 744 C251.90589844 744.52464844 251.81179688 745.04929687 251.71484375 745.58984375 C250.75065367 748.84069228 249.18905393 751.59006568 247.5625 754.5625 C246.63630859 756.26599609 246.63630859 756.26599609 245.69140625 758.00390625 C244 761 244 761 242 764 C241.60986284 765.9896995 241.26797351 767.99019869 241 770 C241.66 770 242.32 770 243 770 C243 771.32 243 772.64 243 774 C242.01 774 241.02 774 240 774 C240 774.66 240 775.32 240 776 C239.01 776 238.02 776 237 776 C237 775.34 237 774.68 237 774 C234.16439414 775.41780293 234.00641321 777.04785458 233 780 C232.896875 780.825 232.79375 781.65 232.6875 782.5 C231.72313125 786.00679544 229.65969936 787.5997835 227 790 C226.34 790.66 225.68 791.32 225 792 C225.66 792.99 226.32 793.98 227 795 C227 795.99 227 796.98 227 798 C226.01 798 225.02 798 224 798 C224 798.66 224 799.32 224 800 C223.34 800 222.68 800 222 800 C222 799.34 222 798.68 222 798 C221.35285034 798.00460896 220.70570068 798.00921793 220.03894043 798.01396656 C204.27210111 798.1245223 188.50539712 798.20719346 172.73826599 798.25906086 C165.11329198 798.28481209 157.48857715 798.3199031 149.86376953 798.37719727 C143.21580896 798.4271273 136.56803614 798.45931342 129.91989326 798.47044247 C126.40159986 798.47694519 122.88384347 798.49216249 119.36572266 798.52865028 C115.43251696 798.56910994 111.49983041 798.56994326 107.56640625 798.56762695 C106.40762466 798.58560333 105.24884308 798.60357971 104.0549469 798.62210083 C95.9563849 798.57054073 90.9084822 796.84361113 85.1171875 791.1484375 C81.85692159 786.49384403 79.09039024 781.68001064 76.43359375 776.65625 C75.19969714 774.37001105 73.90165845 772.1853333 72.5 770 C70.54522437 766.94955396 68.82016932 763.82698649 67.125 760.625 C64.55110234 755.81234761 61.59259754 751.45679672 58.3203125 747.09375 C57 745 57 745 57 742 C56.01 741.67 55.02 741.34 54 741 C51.1355568 737.28683289 50.67667998 734.63425362 51 730 C50.01 729.67 49.02 729.34 48 729 C47.67 727.35 47.34 725.7 47 724 C46.34 724 45.68 724 45 724 C42 718 39 712 36 706 C-11.36902025 705.24135411 -58.73617866 704.87138919 -106.1111908 704.81832886 C-110.07361054 704.81248361 -114.03600391 704.80277093 -117.99841309 704.79199219 C-124.27346655 704.77544864 -130.54844825 704.76909019 -136.82352257 704.77080345 C-139.16012623 704.76995994 -141.49673125 704.7657668 -143.83332253 704.75811195 C-147.0361806 704.74839992 -150.23878887 704.75107213 -153.44165039 704.75708008 C-154.38892124 704.75145805 -155.33619209 704.74583603 -156.31216812 704.74004364 C-157.17083858 704.74424065 -158.02950905 704.74843765 -158.91419983 704.75276184 C-159.65997819 704.75221707 -160.40575655 704.75167231 -161.17413425 704.75111103 C-163.2499147 704.84649939 -163.2499147 704.84649939 -165 707 C-165.99 707 -166.98 707 -168 707 C-168.33 706.34 -168.66 705.68 -169 705 C-171.18337007 704.42025562 -171.18337007 704.42025562 -173.75 704.0625 C-180.44110533 702.82340642 -184.06784793 700.67977521 -188 695 C-188 694.34 -188 693.68 -188 693 C-188.66 692.67 -189.32 692.34 -190 692 C-190.82453758 690.67784677 -191.58648688 689.31621547 -192.3125 687.9375 C-194.38923791 684.06215871 -196.63863287 680.38038285 -199.08203125 676.7265625 C-200 675 -200 675 -200 672 C-200.66 672 -201.32 672 -202 672 C-205.97660408 666.656823 -208.87555294 660.4344064 -211.875 654.5 C-212.18526123 653.88882324 -212.49552246 653.27764648 -212.81518555 652.64794922 C-215 648.24623606 -215 648.24623606 -215 646 C-215.99 645.67 -216.98 645.34 -218 645 C-219.06054687 643.18432617 -219.06054687 643.18432617 -220 641 C-225.2407193 630.753356 -230.64931977 620.63870129 -236.59960938 610.78442383 C-246.56079884 594.2162807 -246.56079884 594.2162807 -245 586 C-243.27589061 581.84593778 -241.16533989 577.93837114 -239 574 C-238.52433594 573.09636719 -238.04867187 572.19273437 -237.55859375 571.26171875 C-234.29066921 565.1453346 -234.29066921 565.1453346 -232 564 C-232 563.01 -232 562.02 -232 561 C-231.34 561 -230.68 561 -230 561 C-229.79375 560.21625 -229.5875 559.4325 -229.375 558.625 C-227.85318213 554.61293469 -225.82614228 551.28141501 -223.57421875 547.64453125 C-222.07338717 545.12328316 -220.77030974 542.58089534 -219.5 539.9375 C-217.93827916 536.739926 -216.27188397 533.80228806 -214.25 530.875 C-210.9789924 526.12405066 -208.19937863 521.14294647 -205.4074707 516.10205078 C-203.60650551 512.85197599 -201.79213128 509.61998988 -199.8671875 506.44140625 C-199.23039062 505.38824219 -198.59359375 504.33507812 -197.9375 503.25 C-197.36902344 502.32703125 -196.80054688 501.4040625 -196.21484375 500.453125 C-194.70414293 497.85882074 -194.70414293 497.85882074 -195 494 C-195.66 493.67 -196.32 493.34 -197 493 C-197.70537777 491.35411853 -198.40527596 489.70556011 -199.0703125 488.04296875 C-200.41373194 485.09083275 -202.19487961 482.47657874 -204.01171875 479.796875 C-205 478 -205 478 -205 475 C-205.66 475 -206.32 475 -207 475 C-207.48210937 474.01257813 -207.96421875 473.02515625 -208.4609375 472.0078125 C-209.09874577 470.7134369 -209.73677829 469.41917179 -210.375 468.125 C-210.69210938 467.47402344 -211.00921875 466.82304688 -211.3359375 466.15234375 C-212.68890121 463.41822959 -213.82772518 461.17227482 -216 459 C-216 458.01 -216 457.02 -216 456 C-216.66 456 -217.32 456 -218 456 C-218.41121094 455.15695312 -218.82242188 454.31390625 -219.24609375 453.4453125 C-221.07628472 449.85014895 -223.04036877 446.36402049 -225.0625 442.875 C-231 432.61238532 -231 432.61238532 -231 430 C-231.99 430 -232.98 430 -234 430 C-234.33 428.68 -234.66 427.36 -235 426 C-235.66 426 -236.32 426 -237 426 C-237.12375 425.4225 -237.2475 424.845 -237.375 424.25 C-238.00648824 421.97664233 -238.88858191 420.0746471 -240 418 C-240.33 419.32 -240.66 420.64 -241 422 C-242 419 -242 419 -242.125 415.5 C-242.97405659 408.06390757 -248.52687421 401.99694697 -252.8125 396.125 C-254.74818643 393.35973367 -255.82978953 391.12056126 -257 388 C-257.920342 386.35653214 -258.84401902 384.71467651 -259.796875 383.08984375 C-261.24985582 380.5659972 -262.62162374 378.00281137 -264 375.4375 C-266.15212943 371.47305104 -268.47837787 367.74176187 -271 364 C-271.93361279 362.44756605 -272.8493223 360.88427088 -273.75 359.3125 C-274.17796875 358.56613281 -274.6059375 357.81976563 -275.046875 357.05078125 C-276 355 -276 355 -276 352 C-276.66 352 -277.32 352 -278 352 C-281.18388587 346.29436381 -284.33446364 340.57145501 -287.45703125 334.83203125 C-288.49243956 332.93159828 -289.53155326 331.0331798 -290.57421875 329.13671875 C-291.59416547 327.27923391 -292.60613217 325.41734094 -293.609375 323.55078125 C-294.46144146 321.9878616 -295.34097602 320.4390734 -296.265625 318.91796875 C-299.38687951 313.52171535 -300.12424336 308.15027251 -299 302 C-296.61953315 296.2375754 -293.26884317 290.87012753 -290.125 285.5 C-289.65956787 284.69973389 -289.19413574 283.89946777 -288.71459961 283.07495117 C-285.9233015 278.27936308 -283.11648042 273.49291971 -280.30859375 268.70703125 C-279.37539307 267.11375 -279.37539307 267.11375 -278.42333984 265.48828125 C-277.20864774 263.41524073 -275.99162932 261.34356105 -274.77197266 259.2734375 C-271.64183136 253.9325723 -268.69174243 248.57527978 -266 243 C-265.34 243 -264.68 243 -264 243 C-263.91234375 242.30261719 -263.8246875 241.60523438 -263.734375 240.88671875 C-262.83150916 237.33768759 -261.23997731 234.88349881 -259.25 231.8125 C-256.20553657 227.03388299 -253.49737255 222.19886491 -251.0234375 217.1015625 C-249.81842989 214.62715756 -248.58001186 212.25715981 -247 210 C-246.34 210 -245.68 210 -245 210 C-244.9175 208.72125 -244.835 207.4425 -244.75 206.125 C-244.484375 203.90625 -244.484375 203.90625 -244 202 C-242 200.625 -242 200.625 -240 200 C-239.67 199.34 -239.34 198.68 -239 198 C-227.93929001 191.24067723 -212.45086443 192.18133441 -200 194 C-199.67 192.68 -199.34 191.36 -199 190 C-199 191.32 -199 192.64 -199 194 C-175.24 194 -151.48 194 -127 194 C-126.01 191.03 -126.01 191.03 -125 188 C-123.93432617 185.90112305 -123.93432617 185.90112305 -122.79296875 184.01171875 C-122.37402344 183.31046875 -121.95507812 182.60921875 -121.5234375 181.88671875 C-121.08257812 181.16097656 -120.64171875 180.43523437 -120.1875 179.6875 C-119.27396101 178.1606218 -118.36119052 176.63328353 -117.44921875 175.10546875 C-117.01786621 174.38536621 -116.58651367 173.66526367 -116.14208984 172.92333984 C-114.88420323 170.80499209 -113.6776255 168.66394 -112.5 166.5 C-110.13211277 162.17566694 -107.62838978 157.93424764 -105.125 153.6875 C-104.69195557 152.95257324 -104.25891113 152.21764648 -103.81274414 151.46044922 C-102.16980105 148.67401281 -100.52606361 145.88806127 -98.87744141 143.10498047 C-97.89512193 141.44637004 -96.91619373 139.78575245 -95.9375 138.125 C-95.38964844 137.19945312 -94.84179688 136.27390625 -94.27734375 135.3203125 C-92.88542472 132.9570838 -92.88542472 132.9570838 -92 130 C-91.34 130 -90.68 130 -90 130 C-89.87689453 129.41283203 -89.75378906 128.82566406 -89.62695312 128.22070312 C-88.99729996 125.99043632 -88.19595303 124.42318446 -86.96875 122.46875 C-86.57042969 121.82292969 -86.17210937 121.17710937 -85.76171875 120.51171875 C-84.92057292 119.17057292 -84.07942708 117.82942708 -83.23828125 116.48828125 C-82.83996094 115.84246094 -82.44164062 115.19664062 -82.03125 114.53125 C-81.66580078 113.94923828 -81.30035156 113.36722656 -80.92382812 112.76757812 C-79.93060186 110.86721921 -79.43869537 109.09241615 -79 107 C-78.34 107 -77.68 107 -77 107 C-76.9175 106.29875 -76.835 105.5975 -76.75 104.875 C-76.00769676 102.02950423 -74.9223935 100.17209628 -73.234375 97.79296875 C-71.17228219 94.79771368 -69.37138197 91.64526332 -67.515625 88.51953125 C-66.15370379 86.25551275 -64.74389492 84.0328867 -63.3125 81.8125 C-61.11368659 78.32811836 -59.57817514 74.80196738 -58 71 C-56.4375 68.0625 -56.4375 68.0625 -55 66 C-54.34 66 -53.68 66 -53 66 C-52.82887695 65.14740601 -52.82887695 65.14740601 -52.65429688 64.27758789 C-51.92728688 61.74688781 -50.87562689 59.82084058 -49.53125 57.55859375 C-48.79841797 56.31239258 -48.79841797 56.31239258 -48.05078125 55.04101562 C-47.53902344 54.18185547 -47.02726563 53.32269531 -46.5 52.4375 C-45.48709439 50.72933803 -44.47657033 49.01976098 -43.46875 47.30859375 C-42.79489258 46.17635376 -42.79489258 46.17635376 -42.10742188 45.02124023 C-40.86822493 42.90219321 -40.86822493 42.90219321 -40 40 C-39.67 39.34 -39.34 38.68 -39 38 C-38.855625 37.4225 -38.71125 36.845 -38.5625 36.25 C-37.84734032 33.38936126 -37.14995877 30.72358656 -36 28 C-35.35836914 27.84233154 -34.71673828 27.68466309 -34.05566406 27.5222168 C-31.58187181 27.14009771 -31.58187181 27.14009771 -29.921875 23.83203125 C-29.19031279 22.49632407 -28.46672763 21.15622559 -27.75 19.8125 C-24.71363978 14.40352727 -22.05292032 10.36540625 -16.62890625 7.078125 C-14.67948345 5.93921731 -14.67948345 5.93921731 -13 3 C-13 3.99 -13 4.98 -13 6 C-9.04 5.67 -5.08 5.34 -1 5 C-0.67 3.35 -0.34 1.7 0 0 Z M-35 30 C-34.67 30.66 -34.34 31.32 -34 32 C-33.67 31.34 -33.34 30.68 -33 30 C-33.66 30 -34.32 30 -35 30 Z M428 251 C429 253 429 253 429 253 Z M415 274 C416 276 416 276 416 276 Z M396 307 C397 309 397 309 397 309 Z M279 698 C278.67 698.66 278.34 699.32 278 700 C278.66 700 279.32 700 280 700 C279.67 699.34 279.34 698.68 279 698 Z M278 701 C277.67 701.66 277.34 702.32 277 703 C277.66 703 278.32 703 279 703 C278.67 702.34 278.34 701.68 278 701 Z M275 705 C276 707 276 707 276 707 Z " fill="none" transform="translate(399,98)"/>
<path d="M0 0 C2.8455204 3.40833646 5.18211602 6.83466984 7.36328125 10.69921875 C8.31098389 12.36936035 8.31098389 12.36936035 9.27783203 14.07324219 C9.77455414 14.95562561 9.77455414 14.95562561 10.28131104 15.85583496 C11.69401158 18.36516574 13.11650093 20.86890297 14.53820801 23.37313843 C15.27366346 24.66893019 16.00860393 25.96501438 16.74304199 27.26138306 C20.33957768 33.60869694 23.97664383 39.93233777 27.625 46.25 C28.23432373 47.30590332 28.84364746 48.36180664 29.47143555 49.44970703 C34.40089779 57.98295197 39.362931 66.49708639 44.34619141 74.99902344 C45.40686324 76.81160011 46.46263608 78.62705546 47.51269531 80.44580078 C48.50156229 82.14401586 49.51137325 83.83021237 50.54199219 85.50341797 C51.01024414 86.28475098 51.47849609 87.06608398 51.9609375 87.87109375 C52.37907715 88.54970459 52.7972168 89.22831543 53.22802734 89.92749023 C54.26697964 92.71675844 53.88533458 94.17497784 53 97 C51.74755859 99.54174805 51.74755859 99.54174805 50.1484375 102.26171875 C49.25415039 103.79602539 49.25415039 103.79602539 48.34179688 105.36132812 C47.36823242 107.0077832 47.36823242 107.0077832 46.375 108.6875 C45.69521082 109.84916922 45.01618752 111.01128693 44.33789062 112.17382812 C42.92841697 114.58817446 41.51567013 117.00055922 40.10058594 119.41162109 C36.86944469 124.923186 33.68728879 130.46300441 30.5 136 C29.26063781 138.14856508 28.02105327 140.29700191 26.78125 142.4453125 C24.51457181 146.3741425 22.24842761 150.30327938 19.98303223 154.23284912 C18.97380896 155.98341241 17.96446164 157.73390411 16.95507812 159.484375 C15.6983234 161.66392165 14.44179414 163.84359832 13.18554688 166.0234375 C9.14570578 173.02883792 5.07481054 180.01461051 1 187 C215.83 187.495 215.83 187.495 435 188 C431.04214571 195.25606619 427.06739375 202.49349184 423 209.6875 C422.16142456 211.17117065 422.16142456 211.17117065 421.3059082 212.68481445 C416.75914074 220.70632673 412.12538519 228.67483478 407.46313477 236.62963867 C404.19007007 242.22186198 400.94435445 247.82842942 397.734375 253.45703125 C397.19632988 254.40046638 397.19632988 254.40046638 396.64741516 255.36296082 C394.90090251 258.42739541 393.15731559 261.49346443 391.41674805 264.5612793 C390.78293213 265.67543213 390.14911621 266.78958496 389.49609375 267.9375 C388.94107178 268.91589844 388.3860498 269.89429688 387.81420898 270.90234375 C387.21552002 271.92457031 386.61683105 272.94679688 386 274 C385.77431912 274.66616569 385.54863824 275.33233138 385.31611854 276.01868391 C384.1995884 278.68407558 383.22822237 280.13021501 381 282 C375.46420573 283.25561171 369.95308174 283.04491915 364.30204773 282.96203613 C362.54880697 282.96552397 360.79557026 282.97252723 359.04235584 282.98274946 C354.21885296 283.0006693 349.39676655 282.96859842 344.57344425 282.92852497 C339.37443789 282.89403093 334.17551374 282.90566441 328.97642517 282.91174316 C319.96684982 282.91594144 310.95773734 282.89080613 301.94827843 282.84584045 C288.92213774 282.78087002 275.89622125 282.75999364 262.86993609 282.74993652 C241.73665011 282.73242021 220.60361093 282.67916103 199.47045898 282.60351562 C178.93954708 282.53010225 158.40870217 282.47346567 137.87768555 282.43945312 C135.97992679 282.43630044 135.97992679 282.43630044 134.04382946 282.43308407 C127.69693685 282.4226439 121.35004375 282.4125342 115.00315034 282.40258884 C62.33526297 282.31963239 9.66764351 282.17870737 -43 282 C-43 280.68 -43 279.36 -43 278 C-43.66 278 -44.32 278 -45 278 C-46.39119134 276.02462874 -47.64604203 274.07344065 -48.875 272 C-49.23142578 271.40783691 -49.58785156 270.81567383 -49.95507812 270.20556641 C-57 258.39212109 -57 258.39212109 -57 254 C-57.66 254 -58.32 254 -59 254 C-59 252.68 -59 251.36 -59 250 C-59.66 250 -60.32 250 -61 250 C-61.33 248.68 -61.66 247.36 -62 246 C-62.66 246 -63.32 246 -64 246 C-64.33 244.02 -64.66 242.04 -65 240 C-65.99 239.67 -66.98 239.34 -68 239 C-68.495 235.535 -68.495 235.535 -69 232 C-69.99 232 -70.98 232 -72 232 C-72.33 230.02 -72.66 228.04 -73 226 C-73.66 226 -74.32 226 -75 226 C-75.66 224.02 -76.32 222.04 -77 220 C-77.66 220 -78.32 220 -79 220 C-79.103125 219.401875 -79.20625 218.80375 -79.3125 218.1875 C-79.83135614 215.94699765 -79.83135614 215.94699765 -81.4375 214.5625 C-83.45170788 212.54829212 -84.14338131 210.70164356 -85 208 C-85 206.68 -85 205.36 -85 204 C-85.66 204 -86.32 204 -87 204 C-87 203.34 -87 202.68 -87 202 C-87.99 201.67 -88.98 201.34 -90 201 C-90.33 198.69 -90.66 196.38 -91 194 C-91.99 194 -92.98 194 -94 194 C-94.33 192.02 -94.66 190.04 -95 188 C-95.66 188 -96.32 188 -97 188 C-98.32421875 186.42578125 -98.32421875 186.42578125 -99.6875 184.3125 C-100.14511719 183.62800781 -100.60273438 182.94351563 -101.07421875 182.23828125 C-102.27046711 179.34608585 -101.7984508 178.00136881 -101 175 C-99.94360352 172.68261719 -99.94360352 172.68261719 -98.62890625 170.296875 C-97.89933716 168.96414551 -97.89933716 168.96414551 -97.1550293 167.60449219 C-96.36672729 166.19151855 -96.36672729 166.19151855 -95.5625 164.75 C-95.01827393 163.76418945 -94.47404785 162.77837891 -93.91333008 161.76269531 C-89.97053854 154.65472635 -85.90117018 147.62984178 -81.74609375 140.64453125 C-78.35913137 134.940639 -75.05865824 129.18704069 -71.75 123.4375 C-66.88245753 114.98321851 -61.98954591 106.54473336 -57.0625 98.125 C-51.64162924 88.8567869 -46.29940226 79.54535477 -40.98379517 70.21658325 C-35.71996076 60.98074918 -30.39315101 51.78342984 -25.02099609 42.61010742 C-21.17550966 36.03700851 -17.38675859 29.43381651 -13.625 22.8125 C-9.24302311 15.10362696 -4.73107602 7.50014698 0 0 Z " fill="#FFFFFF" transform="translate(391,124)"/>
<path d="M0 0 C0.99398804 -0.01582626 1.98797607 -0.03165253 3.01208496 -0.04795837 C4.1118013 -0.06007355 5.21151764 -0.07218872 6.34455872 -0.08467102 C8.07133347 -0.10898445 8.07133347 -0.10898445 9.83299255 -0.13378906 C20.46166992 -0.27405324 31.09127131 -0.35356561 41.72069836 -0.41270733 C49.57888552 -0.45727177 57.43532624 -0.53437674 65.29273242 -0.65429181 C70.81633521 -0.73574801 76.33945999 -0.77885274 81.86363775 -0.79400951 C85.16360183 -0.80417236 88.4608627 -0.83655151 91.76029015 -0.90032005 C95.44608832 -0.96814759 99.12701272 -0.97332277 102.81330872 -0.96357727 C104.44770149 -1.01514984 104.44770149 -1.01514984 106.1151123 -1.06776428 C109.18771138 -1.02146043 111.51898228 -0.8822697 114.40242004 0.18754578 C118.38059826 4.39109294 120.40242004 8.39824646 120.40242004 14.18754578 C121.39242004 14.51754578 122.38242004 14.84754578 123.40242004 15.18754578 C124.77766418 17.1426239 124.77766418 17.1426239 126.18757629 19.71879578 C126.7127887 20.66553162 127.2380011 21.61226746 127.77912903 22.58769226 C128.33544006 23.61064392 128.8917511 24.63359558 129.46492004 25.68754578 C130.64343833 27.81449613 131.82313385 29.9407946 133.00398254 32.06645203 C133.58438293 33.11591003 134.16478333 34.16536804 134.76277161 35.24662781 C136.89708462 39.0747896 139.10257604 42.85644329 141.33992004 46.62504578 C142.14471538 47.98565908 142.94939959 49.34633812 143.75398254 50.70707703 C144.17325012 51.415578 144.5925177 52.12407898 145.02449036 52.85404968 C152.98933429 66.34235201 160.83178962 79.89562093 168.5115509 93.54814148 C172.94200282 101.40926786 177.47265062 109.20882495 182.03132629 116.99613953 C186.97938979 125.45044669 191.87934929 133.9317729 196.76350403 142.42314148 C199.97145723 147.99467253 203.19811679 153.55426046 206.46101379 159.09379578 C207.11199036 160.20110046 207.76296692 161.30840515 208.43367004 162.44926453 C209.68126352 164.56863951 210.93242889 166.68591691 212.18757629 168.80082703 C212.74187317 169.74313171 213.29617004 170.6854364 213.86726379 171.65629578 C214.35831604 172.4858075 214.84936829 173.31531921 215.3553009 174.16996765 C216.40242004 176.18754578 216.40242004 176.18754578 216.40242004 178.18754578 C202.47735022 178.53870032 188.55297085 178.80181368 174.62437534 178.96472836 C168.15600352 179.0429342 161.69061035 179.14893818 155.22395325 179.31913757 C148.97966364 179.48245077 142.73823262 179.57186923 136.49197197 179.61070442 C134.11257337 179.63836624 131.73332706 179.69239276 129.35515022 179.77349663 C111.20187925 180.36781004 111.20187925 180.36781004 106.54916382 176.74419975 C103.52904114 173.24371269 101.73280956 169.38181135 100.14435768 165.073246 C99.00487709 162.17715515 97.38982043 159.59780107 95.76960754 156.94926453 C94.60421063 154.92529271 93.4401772 152.90053527 92.27742004 150.87504578 C90.97276847 148.60809801 89.66807992 146.34117154 88.36335754 144.07426453 C87.70690247 142.93263855 87.05044739 141.79101257 86.37409973 140.61479187 C83.22216772 135.13598781 80.06201399 129.66193355 76.90242004 124.18754578 C75.6719089 122.05475773 74.44144039 119.92194509 73.21101379 117.78910828 C72.59468079 116.72079773 71.97834778 115.65248718 71.34333801 114.55180359 C65.69636536 104.76371765 60.0493927 94.97563171 54.40242004 85.18754578 C50.40411727 91.50262212 46.59702835 97.91398967 42.83992004 104.37504578 C42.22568176 105.4294989 41.61144348 106.48395203 40.97859192 107.57035828 C36.59127566 115.11346343 32.25164942 122.68279595 27.93440247 130.26615906 C24.21714884 136.78647736 20.44364553 143.2725057 16.65242004 149.75004578 C11.53816901 158.49159124 6.48182499 167.26485739 1.46492004 176.06254578 C-9.10453215 194.59460745 -19.76640095 213.07166725 -30.53288269 231.49003601 C-34.82408413 238.8396849 -39.06023751 246.21940104 -43.27458191 253.61332703 C-49.39807129 264.35464662 -55.5928513 275.05432384 -61.83586121 285.72660828 C-68.49233818 297.10786749 -75.08919027 308.52052393 -81.61671448 319.97608948 C-86.79063598 329.05405024 -92.02862843 338.09262399 -97.30851746 347.10942078 C-102.13333699 355.36182704 -106.87768134 363.658886 -111.61003113 371.96446228 C-116.97315511 381.37458431 -122.4015164 390.74504507 -127.87101746 400.09379578 C-131.42289503 406.16636066 -134.93264464 412.25955608 -138.41007996 418.37504578 C-142.03645929 424.72120962 -145.74627793 431.01951072 -149.43400574 437.3301239 C-153.86819742 444.92333065 -158.2611021 452.53810657 -162.59757996 460.18754578 C-163.25757996 460.18754578 -163.91757996 460.18754578 -164.59757996 460.18754578 C-165.51023621 458.49178406 -165.51023621 458.49178406 -166.44132996 456.76176453 C-172.20904844 446.1241275 -178.23056177 435.66649948 -184.4382782 425.27964783 C-189.98167047 415.99733078 -195.3371732 406.62292328 -200.55387878 397.15238953 C-203.32230854 392.15083734 -206.15749775 387.22694507 -209.20695496 382.39067078 C-210.06305359 381.02349915 -210.06305359 381.02349915 -210.93644714 379.62870789 C-212.01287099 377.92531936 -213.1063421 376.23253781 -214.21965027 374.55302429 C-214.69499207 373.79948669 -215.17033386 373.0459491 -215.66007996 372.26957703 C-216.2962323 371.29855042 -216.2962323 371.29855042 -216.94523621 370.3079071 C-218.18030786 366.29346199 -216.00353192 362.97317202 -214.1681366 359.42118835 C-213.62020447 358.48428162 -213.07227234 357.54737488 -212.50773621 356.58207703 C-211.89382019 355.52577087 -211.27990417 354.46946472 -210.64738464 353.38114929 C-209.9915741 352.26538513 -209.33576355 351.14962097 -208.66007996 350.00004578 C-207.97757176 348.82970742 -207.29561108 347.6590496 -206.61418152 346.48808289 C-205.24886972 344.14348241 -203.88080192 341.80052883 -202.51017761 339.45903015 C-199.94108033 335.06460794 -197.39391142 330.65768125 -194.84757996 326.25004578 C-193.96240103 324.72126227 -193.07698684 323.19261495 -192.19132996 321.66410828 C-191.76207214 320.9232196 -191.33281433 320.18233093 -190.89054871 319.41899109 C-190.02856954 317.93136088 -189.16659037 316.44373067 -188.30461121 314.95610046 C-182.64305397 305.18438868 -176.99071923 295.40740702 -171.34757996 285.62504578 C-170.71440857 284.52748962 -170.08123718 283.42993347 -169.42887878 282.29911804 C-166.21665115 276.73025802 -163.00575397 271.16063586 -159.79679871 265.58988953 C-153.77958655 255.14731616 -147.74564643 244.71545239 -141.66007996 234.31254578 C-136.14600208 224.88575803 -130.71474529 215.41383068 -125.30781555 205.92539978 C-121.44801331 199.15333954 -117.57274707 192.39271861 -113.59757996 185.68754578 C-109.20373523 178.27570669 -104.92839492 170.79711668 -100.66007996 163.31254578 C-95.27855661 153.87624972 -89.87371307 144.45449194 -84.42179871 135.05863953 C-81.05345691 129.25336724 -77.70077283 123.43907723 -74.34757996 117.62504578 C-73.71400574 116.52676453 -73.08043152 115.42848328 -72.42765808 114.29692078 C-69.21579085 108.72881997 -66.00533581 103.15990994 -62.79679871 97.58988953 C-56.75650741 87.10705635 -50.70113114 76.63369406 -44.59757996 66.18754578 C-39.70000661 57.80466779 -34.8251843 49.4090405 -29.97257996 41.00004578 C-29.35165466 39.92504822 -28.73072937 38.85005066 -28.09098816 37.74247742 C-25.05528901 32.47940138 -22.0377024 27.2072 -19.05461121 21.91410828 C-18.50176453 20.93595154 -17.94891785 19.9577948 -17.37931824 18.94999695 C-16.3404071 17.10907186 -15.30599718 15.26559701 -14.27677917 13.41923523 C-13.59059509 12.20433411 -13.59059509 12.20433411 -12.89054871 10.96488953 C-12.49375916 10.25582458 -12.0969696 9.54675964 -11.68815613 8.81620789 C-10.59757996 7.18754578 -10.59757996 7.18754578 -8.59757996 6.18754578 C-7.56744718 4.53933334 -6.56643367 2.87250876 -5.59757996 1.18754578 C-3.98568311 -0.42435107 -2.23155983 0.03099203 0 0 Z " fill="#FFFFFF" transform="translate(663.5975799560547,415.8124542236328)"/>
<path d="M0 0 C35.64 0 71.28 0 108 0 C113.28 9.24 118.56 18.48 124 28 C131.30058534 40.68626305 138.61718964 53.36155931 146 66 C156.46139269 83.90858557 166.8009339 101.88623686 177.07608032 119.90216064 C182.25985125 128.98795878 187.50194021 138.03821041 192.78369141 147.06738281 C200.21438893 159.77385453 207.54894865 172.53578411 214.89550781 185.29101562 C216.78398493 188.56931062 218.67301666 191.84728485 220.5625 195.125 C221.49545898 196.74341797 221.49545898 196.74341797 222.44726562 198.39453125 C226.58688448 205.56871951 230.75524921 212.7255998 234.9375 219.875 C240.35958699 229.14563931 245.70324012 238.45936699 251.02023315 247.79046631 C255.63484073 255.88707921 260.29092092 263.95784523 265 272 C273.12167278 285.87248049 281.07419252 299.84017907 289.02993774 313.80828857 C292.95167333 320.69235689 296.89203346 327.56263626 300.9375 334.375 C304.35234452 340.15391627 307.70855015 345.96238061 311 351.8125 C311.37374756 352.47620605 311.74749512 353.13991211 312.13256836 353.82373047 C313.09652345 355.54461673 314.04887638 357.27198877 315 359 C315.40476562 359.71671875 315.80953125 360.4334375 316.2265625 361.171875 C317.70571567 364.66805523 317.55923525 368.29173767 317 372 C315.125 374.75 315.125 374.75 313 377 C311.75983331 379.6794645 311.75983331 379.6794645 311 382 C310.34 382 309.68 382 309 382 C308.88398437 383.01126953 308.88398437 383.01126953 308.765625 384.04296875 C307.76835817 387.89465746 305.83635637 390.97273685 303.75 394.3125 C303.34322021 394.97822021 302.93644043 395.64394043 302.51733398 396.32983398 C300.40963279 399.76982087 298.25006948 403.1727527 296.0625 406.5625 C294.15196575 409.57323845 292.9501813 412.54479526 292 416 C291.34 416 290.68 416 290 416 C289.67 417.32 289.34 418.64 289 420 C288.34 420 287.68 420 287 420 C287 420.66 287 421.32 287 422 C286.34 422 285.68 422 285 422 C285.33 422.99 285.66 423.98 286 425 C285.28735352 426.80932617 285.28735352 426.80932617 284.12890625 428.79296875 C283.71962891 429.50517578 283.31035156 430.21738281 282.88867188 430.95117188 C282.2322168 432.0581543 282.2322168 432.0581543 281.5625 433.1875 C281.12873047 433.93708984 280.69496094 434.68667969 280.24804688 435.45898438 C279.17442769 437.31127243 278.08837319 439.1563425 277 441 C276.34 441 275.68 441 275 441 C274.896875 441.7425 274.79375 442.485 274.6875 443.25 C273.95066203 446.1973519 273.05200858 447.78383074 271 450 C270.34 450 269.68 450 269 450 C268.9071875 450.86238281 268.814375 451.72476562 268.71875 452.61328125 C267.91433926 456.4036297 266.53215487 458.90190535 264.5 462.1875 C261.88923065 466.4249261 261.88923065 466.4249261 260 471 C239.63773743 471.02362925 219.27547775 471.0411235 198.91320419 471.05181217 C189.45319908 471.05691266 179.9932027 471.06385876 170.53320312 471.07543945 C89.0173566 471.17333106 89.0173566 471.17333106 54 470 C63.3792666 452.78073661 72.95638202 435.68376185 82.87329102 418.76782227 C87.24547568 411.30830212 91.55705968 403.81626342 95.83056641 396.29980469 C96.71052343 394.75329053 97.6134837 393.21956501 98.54241943 391.70196533 C100.10309735 389.01864573 100.10309735 389.01864573 100.94400024 385.93554688 C102.45341038 381.94518141 103.75600226 379.81658874 107 377 C114.79292759 374.67039446 123.50030827 375.61214855 131.52734375 375.828125 C133.96110346 375.85051655 136.3949174 375.86759335 138.82875061 375.87957764 C145.22366629 375.92531897 151.61529224 376.04312018 158.00891113 376.17602539 C164.53738904 376.29895543 171.06640056 376.35362473 177.59570312 376.4140625 C190.39853613 376.54262167 203.19909284 376.74500928 216 377 C212.82406624 371.15325882 209.64386549 365.31253866 206.3359375 359.5390625 C205.6951123 358.41918945 205.05428711 357.29931641 204.39404297 356.14550781 C203.7210644 354.9719847 203.04804925 353.79848257 202.375 352.625 C201.66412367 351.38384724 200.95335049 350.1426354 200.24267578 348.90136719 C199.17086436 347.02941465 198.09895371 345.15751962 197.02658081 343.28588867 C194.93997953 339.64384754 192.85806161 335.99919408 190.78125 332.3515625 C185.05385663 322.2946963 179.26001515 312.27901425 173.41918945 302.28759766 C167.19984522 291.64407866 161.04422994 280.96412592 154.89111328 270.28222656 C151.76319852 264.85340058 148.63141552 259.42680719 145.5 254 C144.24998121 251.83334417 142.99998122 249.6666775 141.75 247.5 C141.13125 246.4275 140.5125 245.355 139.875 244.25 C29.25 52.5 29.25 52.5 27.37207031 49.24487305 C26.13189239 47.09526366 24.89165873 44.94568642 23.65136719 42.79614258 C20.7264977 37.72690788 17.80219167 32.65735064 14.87988281 27.5866394 C13.50193062 25.19573403 12.12365828 22.80501328 10.74536133 20.41430664 C9.77459018 18.73016037 8.80428126 17.04574769 7.83398438 15.36132812 C6.94936523 13.82702148 6.94936523 13.82702148 6.046875 12.26171875 C5.52963867 11.36412842 5.01240234 10.46653809 4.47949219 9.54174805 C3.45173775 7.7760795 2.39259918 6.02845695 1.30957031 4.29614258 C0 2 0 2 0 0 Z " fill="#FFFFFF" transform="translate(175,312)"/>
<path d="M0 0 C1.24517962 0.01922075 1.24517962 0.01922075 2.51551437 0.0388298 C12.80227171 0.19894478 23.08872796 0.37369424 33.375 0.5625 C33.375 0.8925 33.375 1.2225 33.375 1.5625 C29.415 1.5625 25.455 1.5625 21.375 1.5625 C21.045 2.5525 20.715 3.5425 20.375 4.5625 C20.375 3.5725 20.375 2.5825 20.375 1.5625 C19.09563568 1.72450394 17.81627136 1.88650787 16.49813843 2.05342102 C11.45449027 2.61087824 6.47513599 2.7103769 1.40478516 2.70776367 C-0.02373276 2.71280159 -0.02373276 2.71280159 -1.48110962 2.71794128 C-4.59939916 2.72736874 -7.71763464 2.7293895 -10.8359375 2.73046875 C-13.01307192 2.73368444 -15.19020612 2.73704874 -17.36734009 2.74055481 C-21.91465761 2.7465236 -26.46195618 2.74839677 -31.00927734 2.74780273 C-36.84359305 2.74770064 -42.67778836 2.7614115 -48.51207542 2.77857494 C-53.00038211 2.78966898 -57.4886593 2.79172283 -61.9769783 2.79119301 C-64.12922205 2.79237479 -66.28146651 2.7968076 -68.43369675 2.80452538 C-71.43293626 2.8142831 -74.43190887 2.81146517 -77.43115234 2.80541992 C-78.32259949 2.81103943 -79.21404663 2.81665894 -80.13250732 2.82244873 C-81.3560643 2.816157 -81.3560643 2.816157 -82.6043396 2.80973816 C-83.66668603 2.81055531 -83.66668603 2.81055531 -84.750494 2.81138897 C-86.625 2.5625 -86.625 2.5625 -89.625 0.5625 C-59.72995968 -0.37550874 -29.90162812 -0.4619361 0 0 Z " fill="#2A2A2A" transform="translate(743.625,197.4375)"/>
<path d="M0 0 C0.66 0.33 1.32 0.66 2 1 C2 2.98 2 4.96 2 7 C-0.31 7.66 -2.62 8.32 -5 9 C-5 12.63 -5 16.26 -5 20 C-6.98 20 -8.96 20 -11 20 C-10.25 13.375 -10.25 13.375 -8 10 C-7.34 10 -6.68 10 -6 10 C-5.855625 9.38125 -5.71125 8.7625 -5.5625 8.125 C-5 6 -5 6 -4 4 C-3.34 4 -2.68 4 -2 4 C-2.33 3.01 -2.66 2.02 -3 1 C-2.01 0.67 -1.02 0.34 0 0 Z M0 2 C-0.66 3.32 -1.32 4.64 -2 6 C-1.01 5.34 -0.02 4.68 1 4 C0.67 3.34 0.34 2.68 0 2 Z " fill="#2A2A2A" transform="translate(853,688)"/>
<path d="M0 0 C27.06 0 54.12 0 82 0 C82 0.33 82 0.66 82 1 C54.94 1 27.88 1 0 1 C0 0.67 0 0.34 0 0 Z " fill="#2A2A2A" transform="translate(239,804)"/>
<path d="M0 0 C26.4 0 52.8 0 80 0 C80 0.33 80 0.66 80 1 C53.6 1 27.2 1 0 1 C0 0.67 0 0.34 0 0 Z " fill="#2A2A2A" transform="translate(352,804)"/>
<path d="M0 0 C1.19674524 4.78698096 0.48707008 5.83904347 -1.6875 10.125 C-2.20699219 11.17945313 -2.72648438 12.23390625 -3.26171875 13.3203125 C-5.07503262 16.11566826 -6.04790493 16.72138558 -9 18 C-9.81171228 20.55519921 -9.81171228 20.55519921 -10 23 C-10.99 23 -11.98 23 -13 23 C-8.71 15.41 -4.42 7.82 0 0 Z " fill="#2A2A2A" transform="translate(807,344)"/>
<path d="M0 0 C0 0.66 0 1.32 0 2 C-7.92 2 -15.84 2 -24 2 C-24.33 1.34 -24.66 0.68 -25 0 C-16.50375215 -0.89073566 -8.48881273 -0.99418527 0 0 Z " fill="#2A2A2A" transform="translate(716,198)"/>
<path d="M0 0 C2.62386487 3.06117568 3 3.73173127 3 8 C1.35 8.33 -0.3 8.66 -2 9 C-2 9.99 -2 10.98 -2 12 C-3.65 12.33 -5.3 12.66 -7 13 C-7 12.01 -7 11.02 -7 10 C-6.34 10 -5.68 10 -5 10 C-5 9.34 -5 8.68 -5 8 C-4.34 8 -3.68 8 -3 8 C-3 6.68 -3 5.36 -3 4 C-2.34 4 -1.68 4 -1 4 C-0.67 2.68 -0.34 1.36 0 0 Z " fill="#2A2A2A" transform="translate(831,344)"/>
<path d="M0 0 C0.33 1.32 0.66 2.64 1 4 C0.34 4 -0.32 4 -1 4 C-1.12375 4.70125 -1.2475 5.4025 -1.375 6.125 C-3.36363636 15.27272727 -3.36363636 15.27272727 -7 18 C-7.66 18 -8.32 18 -9 18 C-9 18.66 -9 19.32 -9 20 C-9.66 19.67 -10.32 19.34 -11 19 C-7.37 12.73 -3.74 6.46 0 0 Z " fill="#2A2A2A" transform="translate(791,372)"/>
<path d="M0 0 C0.66 0 1.32 0 2 0 C2 0.66 2 1.32 2 2 C5.465 1.505 5.465 1.505 9 1 C9 3.31 9 5.62 9 8 C7.68 7.67 6.36 7.34 5 7 C4.67 7.66 4.34 8.32 4 9 C4 8.34 4 7.68 4 7 C3.01 7.33 2.02 7.66 1 8 C0.40267181 5.23735711 0 2.83967231 0 0 Z M2 3 C2.33 3.99 2.66 4.98 3 6 C3.66 5.67 4.32 5.34 5 5 C4.67 4.34 4.34 3.68 4 3 C3.34 3 2.68 3 2 3 Z " fill="#2A2A2A" transform="translate(824,712)"/>
<path d="M0 0 C2.25424122 1.78460763 2.94902388 2.59219106 3.3125 5.5 C3 8 3 8 1 11 C-0.32 10.34 -1.64 9.68 -3 9 C-2.44271087 5.65626525 -1.64826111 2.96687001 0 0 Z " fill="#2A2A2A" transform="translate(799,400)"/>
<path d="M0 0 C1 2 1 2 0.25 4.8125 C-0.92594682 7.81116438 -2.14356845 10.3700553 -4 13 C-4.66 13 -5.32 13 -6 13 C-6 14.32 -6 15.64 -6 17 C-6.99 17 -7.98 17 -9 17 C-9 17.99 -9 18.98 -9 20 C-9.66 19.67 -10.32 19.34 -11 19 C-10.505 17.515 -10.505 17.515 -10 16 C-9.34 16 -8.68 16 -8 16 C-7.79375 15.21625 -7.5875 14.4325 -7.375 13.625 C-5.50965127 8.70726245 -2.79134805 4.44157897 0 0 Z " fill="#2A2A2A" transform="translate(460,737)"/>
<path d="M0 0 C4.62 0 9.24 0 14 0 C14 0.99 14 1.98 14 3 C9.38 3 4.76 3 0 3 C0 2.01 0 1.02 0 0 Z " fill="#2A2A2A" transform="translate(329,804)"/>
<path d="M0 0 C0.66 0 1.32 0 2 0 C2 0.66 2 1.32 2 2 C2.66 2 3.32 2 4 2 C4 3.32 4 4.64 4 6 C3.01 6 2.02 6 1 6 C1 6.66 1 7.32 1 8 C0.01 8 -0.98 8 -2 8 C-2 6.02 -2 4.04 -2 2 C-1.34 2 -0.68 2 0 2 C0 1.34 0 0.68 0 0 Z " fill="#2A2A2A" transform="translate(638,866)"/>
<path d="M0 0 C0.66 0 1.32 0 2 0 C2 0.66 2 1.32 2 2 C2.66 2 3.32 2 4 2 C4 3.32 4 4.64 4 6 C4.66 6 5.32 6 6 6 C6 6.66 6 7.32 6 8 C7.32 8 8.64 8 10 8 C9.34 9.98 8.68 11.96 8 14 C5.66635648 11.07096942 3.95039164 8.11431797 2.3125 4.75 C1.65701172 3.41195312 1.65701172 3.41195312 0.98828125 2.046875 C0.66214844 1.37140625 0.33601562 0.6959375 0 0 Z " fill="#2A2A2A" transform="translate(844,530)"/>
<path d="M0 0 C7.59 0 15.18 0 23 0 C23 0.33 23 0.66 23 1 C15.31516461 1.67453101 7.71589817 2.1567564 0 2 C0 1.34 0 0.68 0 0 Z " fill="#2A2A2A" transform="translate(329,809)"/>
<path d="M0 0 C0.66 0 1.32 0 2 0 C1.38394021 4.00438862 -0.75441301 6.70179411 -3 10 C-3.33 10.99 -3.66 11.98 -4 13 C-6.0625 14.1875 -6.0625 14.1875 -8 15 C-6.62992438 11.34426939 -4.98982135 8.04532353 -3 4.6875 C-2.484375 3.80449219 -1.96875 2.92148437 -1.4375 2.01171875 C-0.7259375 1.01591797 -0.7259375 1.01591797 0 0 Z " fill="#2A2A2A" transform="translate(482,699)"/>
<path d="M0 0 C0.66 0.66 1.32 1.32 2 2 C1 3.66666667 0 5.33333333 -1 7 C-1.495 7.886875 -1.99 8.77375 -2.5 9.6875 C-4 12 -4 12 -7 14 C-5.23570801 9.02790438 -2.6060834 4.56561939 0 0 Z " fill="#FFFFFF" transform="translate(653,423)"/>
<path d="M0 0 C1.32 0.33 2.64 0.66 4 1 C4 1.99 4 2.98 4 4 C3.01 4 2.02 4 1 4 C1 4.66 1 5.32 1 6 C0.34 6 -0.32 6 -1 6 C-1 5.34 -1 4.68 -1 4 C-1.99 4 -2.98 4 -4 4 C-4 3.34 -4 2.68 -4 2 C-2.68 2 -1.36 2 0 2 C0 1.34 0 0.68 0 0 Z " fill="#2A2A2A" transform="translate(622,892)"/>
<path d="M0 0 C0.82638376 2.89234315 1 4.88742431 1 8 C-0.98 8.66 -2.96 9.32 -5 10 C-3.66511872 6.40608886 -2.03977277 3.24509304 0 0 Z " fill="#2A2A2A" transform="translate(813,334)"/>
<path d="M0 0 C0 3 0 3 -2.5 5.6875 C-3.325 6.450625 -4.15 7.21375 -5 8 C-5.99 7.01 -6.98 6.02 -8 5 C-7.360625 4.71125 -6.72125 4.4225 -6.0625 4.125 C-3.84793921 3.17176549 -3.84793921 3.17176549 -3 1 C-2.01 0.67 -1.02 0.34 0 0 Z " fill="#2A2A2A" transform="translate(163,295)"/>
<path d="M0 0 C0.33 0 0.66 0 1 0 C1.33663062 3.70293685 1.47736015 5.39534381 -0.875 8.375 C-3 10 -3 10 -5 10 C-3.66654496 6.40992874 -2.1056769 3.20429093 0 0 Z " fill="#2A2A2A" transform="translate(287,264)"/>
<path d="M0 0 C1.32 0 2.64 0 4 0 C3.74438677 2.3431213 3.40729228 4.67843403 3 7 C2.01 7.495 2.01 7.495 1 8 C1 6.68 1 5.36 1 4 C0.34 4 -0.32 4 -1 4 C-0.67 2.68 -0.34 1.36 0 0 Z " fill="#2A2A2A" transform="translate(857,666)"/>
<path d="M0 0 C0.66 0 1.32 0 2 0 C2 0.66 2 1.32 2 2 C2.99 1.67 3.98 1.34 5 1 C5.66 1.99 6.32 2.98 7 4 C6.01 4 5.02 4 4 4 C4 4.66 4 5.32 4 6 C4.66 6 5.32 6 6 6 C5.67 7.32 5.34 8.64 5 10 C3.35 6.7 1.7 3.4 0 0 Z " fill="#2A2A2A" transform="translate(830,506)"/>
<path d="M0 0 C1.0625 1.8125 1.0625 1.8125 2 4 C1.67 4.99 1.34 5.98 1 7 C-1.5625 8.1875 -1.5625 8.1875 -4 9 C-3.35455571 5.51460083 -1.89865603 2.97180943 0 0 Z " fill="#2A2A2A" transform="translate(373,115)"/>
<path d="M0 0 C0.99 0.33 1.98 0.66 3 1 C3 1.66 3 2.32 3 3 C3.66 3 4.32 3 5 3 C5 3.66 5 4.32 5 5 C3.0625 5.5625 3.0625 5.5625 1 6 C0.67 5.67 0.34 5.34 0 5 C-0.33 5.66 -0.66 6.32 -1 7 C-1.66 6.67 -2.32 6.34 -3 6 C-2.01 4.02 -1.02 2.04 0 0 Z " fill="#2A2A2A" transform="translate(145,321)"/>
<path d="M0 0 C1.32 0.33 2.64 0.66 4 1 C4 1.99 4 2.98 4 4 C3.34 4 2.68 4 2 4 C1.67 4.66 1.34 5.32 1 6 C0.01 6.66 -0.98 7.32 -2 8 C-1.33333333 5.33333333 -0.66666667 2.66666667 0 0 Z " fill="#2A2A2A" transform="translate(362,128)"/>
<path d="M0 0 C0.33 1.32 0.66 2.64 1 4 C1.66 4 2.32 4 3 4 C3 5.32 3 6.64 3 8 C3.66 8 4.32 8 5 8 C5 8.66 5 9.32 5 10 C2 9 2 9 0.25 6.6875 C-1 4 -1 4 -0.6875 1.6875 C-0.460625 1.130625 -0.23375 0.57375 0 0 Z " fill="#2A2A2A" transform="translate(451,830)"/>
<path d="M0 0 C0.33 0 0.66 0 1 0 C1.3125 2.25 1.3125 2.25 1 5 C-1.5 7.3125 -1.5 7.3125 -4 9 C-4 7.68 -4 6.36 -4 5 C-3.34 5 -2.68 5 -2 5 C-1.34 3.35 -0.68 1.7 0 0 Z " fill="#2A2A2A" transform="translate(469,723)"/>
<path d="M0 0 C0.33 0 0.66 0 1 0 C1 2.31 1 4.62 1 7 C-0.32 7 -1.64 7 -3 7 C-3.33 7.66 -3.66 8.32 -4 9 C-3.35499066 5.51694958 -1.95865224 2.93797836 0 0 Z " fill="#2A2A2A" transform="translate(177,643)"/>
<path d="M0 0 C0.33 1.32 0.66 2.64 1 4 C1.66 4 2.32 4 3 4 C3 4.66 3 5.32 3 6 C1.02 6.66 -0.96 7.32 -3 8 C-1.125 2.25 -1.125 2.25 0 0 Z " fill="#2A2A2A" transform="translate(305,232)"/>
<path d="M0 0 C0.33 1.32 0.66 2.64 1 4 C-3.625 7 -3.625 7 -7 7 C-4.78071806 4.09197539 -3.07030857 2.04687238 0 0 Z " fill="#2A2A2A" transform="translate(381,106)"/>
<path d="M0 0 C0.33 1.32 0.66 2.64 1 4 C0.34 4 -0.32 4 -1 4 C-1.33 5.65 -1.66 7.3 -2 9 C-2.99 9 -3.98 9 -5 9 C-3.35 6.03 -1.7 3.06 0 0 Z " fill="#2A2A2A" transform="translate(529,826)"/>
<path d="M0 0 C0.66 0 1.32 0 2 0 C0.52307692 5.66153846 0.52307692 5.66153846 -2.125 7.375 C-3.053125 7.684375 -3.053125 7.684375 -4 8 C-2.87548273 5.0280615 -1.77706209 2.66559313 0 0 Z " fill="#2A2A2A" transform="translate(826,312)"/>
<path d="M0 0 C0 0.99 0 1.98 0 3 C-4.62 3 -9.24 3 -14 3 C-14 2.67 -14 2.34 -14 2 C-12.95199219 1.90912109 -12.95199219 1.90912109 -11.8828125 1.81640625 C-10.97273438 1.73261719 -10.06265625 1.64882812 -9.125 1.5625 C-8.22007812 1.48128906 -7.31515625 1.40007812 -6.3828125 1.31640625 C-3.9906624 0.99876009 -2.3900132 0 0 0 Z " fill="#2A2A2A" transform="translate(487,100)"/>
<path d="M0 0 C0.33 1.32 0.66 2.64 1 4 C0.34 4 -0.32 4 -1 4 C-1.33 5.65 -1.66 7.3 -2 9 C-2.99 9 -3.98 9 -5 9 C-3.35 6.03 -1.7 3.06 0 0 Z " fill="#2A2A2A" transform="translate(537,812)"/>
<path d="M0 0 C1.32 0 2.64 0 4 0 C3.625 2.4375 3.625 2.4375 3 5 C2.01 5.495 2.01 5.495 1 6 C0.67 4.02 0.34 2.04 0 0 Z " fill="#2A2A2A" transform="translate(864,562)"/>
<path d="M0 0 C0.33 1.32 0.66 2.64 1 4 C0.34 4 -0.32 4 -1 4 C-1.33 5.65 -1.66 7.3 -2 9 C-2.99 9 -3.98 9 -5 9 C-3.35 6.03 -1.7 3.06 0 0 Z " fill="#2A2A2A" transform="translate(799,358)"/>
<path d="M0 0 C0.66 1.32 1.32 2.64 2 4 C0.35 5.65 -1.3 7.3 -3 9 C-3.66 8.67 -4.32 8.34 -5 8 C-3.35 5.36 -1.7 2.72 0 0 Z " fill="#2A2A2A" transform="translate(351,153)"/>
<path d="M0 0 C0.66 0.33 1.32 0.66 2 1 C2 1.66 2 2.32 2 3 C1.01 3.495 1.01 3.495 0 4 C-0.40729228 6.32156597 -0.74438677 8.6568787 -1 11 C-1.66 10.67 -2.32 10.34 -3 10 C-2.25 3.375 -2.25 3.375 0 0 Z " fill="#2A2A2A" transform="translate(362,117)"/>
<path d="M0 0 C0.33 0 0.66 0 1 0 C1 2.31 1 4.62 1 7 C-0.32 7 -1.64 7 -3 7 C-1.125 2.25 -1.125 2.25 0 0 Z " fill="#2A2A2A" transform="translate(675,573)"/>
<path d="M0 0 C0.66 0 1.32 0 2 0 C2 0.66 2 1.32 2 2 C2.66 2 3.32 2 4 2 C4 2.66 4 3.32 4 4 C4.66 4 5.32 4 6 4 C5.67 5.32 5.34 6.64 5 8 C2.74754119 5.31158141 1.11786042 3.35358125 0 0 Z " fill="#2A2A2A" transform="translate(794,444)"/>
<path d="M0 0 C0.99 0.33 1.98 0.66 3 1 C1.84826645 3.46800047 0.95216435 5.04783565 -1 7 C-1.66 5.35 -2.32 3.7 -3 2 C-2.34 2 -1.68 2 -1 2 C-0.67 1.34 -0.34 0.68 0 0 Z " fill="#2A2A2A" transform="translate(868,514)"/>
<path d="M0 0 C-0.66 1.32 -1.32 2.64 -2 4 C-3.9375 3.625 -3.9375 3.625 -6 3 C-6.33 2.34 -6.66 1.68 -7 1 C-4 0 -4 0 0 0 Z " fill="#2A2A2A" transform="translate(136,462)"/>
<path d="M0 0 C2.64 0 5.28 0 8 0 C8 0.66 8 1.32 8 2 C2.25 3.125 2.25 3.125 0 2 C0 1.34 0 0.68 0 0 Z " fill="#2A2A2A" transform="translate(664,839)"/>
<path d="M0 0 C0 4.24645065 -1.81750806 6.38524772 -4 10 C-4.33 9.01 -4.66 8.02 -5 7 C-4.00390625 5.17578125 -4.00390625 5.17578125 -2.5625 3.3125 C-2.08941406 2.68988281 -1.61632812 2.06726563 -1.12890625 1.42578125 C-0.75636719 0.95527344 -0.38382813 0.48476563 0 0 Z " fill="#2A2A2A" transform="translate(725,719)"/>
<path d="M0 0 C1.32 0.33 2.64 0.66 4 1 C3.67 2.65 3.34 4.3 3 6 C0.8614515 3.8614515 0.57344937 2.86724686 0 0 Z " fill="#2A2A2A" transform="translate(157,523)"/>
<path d="M0 0 C0.66 0.33 1.32 0.66 2 1 C0.68 3.31 -0.64 5.62 -2 8 C-2.33 7.01 -2.66 6.02 -3 5 C-1.5625 2.3125 -1.5625 2.3125 0 0 Z " fill="#2A2A2A" transform="translate(812,377)"/>
<path d="M0 0 C0.33 0 0.66 0 1 0 C1.33 2.97 1.66 5.94 2 9 C1.34 9 0.68 9 0 9 C0 6.03 0 3.06 0 0 Z " fill="#2A2A2A" transform="translate(819,241)"/>
<path d="M0 0 C0.66 0.33 1.32 0.66 2 1 C1.67 2.32 1.34 3.64 1 5 C0.34 5 -0.32 5 -1 5 C-0.67 3.35 -0.34 1.7 0 0 Z " fill="#2A2A2A" transform="translate(236,807)"/>
<path d="M0 0 C0.99 0 1.98 0 3 0 C3.33 1.32 3.66 2.64 4 4 C1.525 3.01 1.525 3.01 -1 2 C-0.67 1.34 -0.34 0.68 0 0 Z " fill="#2A2A2A" transform="translate(658,838)"/>
<path d="M0 0 C0.99 0.33 1.98 0.66 3 1 C2.01 2.485 2.01 2.485 1 4 C0.34 4 -0.32 4 -1 4 C-0.67 2.68 -0.34 1.36 0 0 Z " fill="#2A2A2A" transform="translate(856,696)"/>
<path d="M0 0 C1.5 1.375 1.5 1.375 3 3 C3 3.66 3 4.32 3 5 C2.01 4.67 1.02 4.34 0 4 C0 2.68 0 1.36 0 0 Z " fill="#2A2A2A" transform="translate(864,519)"/>
<path d="M0 0 C1.98 0 3.96 0 6 0 C6 0.66 6 1.32 6 2 C4.35 2 2.7 2 1 2 C0.67 1.34 0.34 0.68 0 0 Z " fill="#2A2A2A" transform="translate(145,515)"/>
<path d="M0 0 C0.66 0.99 1.32 1.98 2 3 C0.68 3.33 -0.64 3.66 -2 4 C-1.34 2.68 -0.68 1.36 0 0 Z " fill="#2A2A2A" transform="translate(664,834)"/>
<path d="M0 0 C2 3 2 3 2 6 C1.34 6 0.68 6 0 6 C0 4.02 0 2.04 0 0 Z " fill="#2A2A2A" transform="translate(823,244)"/>
<path d="M0 0 C1.32 0 2.64 0 4 0 C4 0.66 4 1.32 4 2 C2.68 2 1.36 2 0 2 C0 1.34 0 0.68 0 0 Z " fill="#2A2A2A" transform="translate(323,809)"/>
<path d="M0 0 C1.32 0 2.64 0 4 0 C4 0.66 4 1.32 4 2 C2.68 2 1.36 2 0 2 C0 1.34 0 0.68 0 0 Z " fill="#2A2A2A" transform="translate(323,806)"/>
<path d="M0 0 C0.66 0 1.32 0 2 0 C2 0.99 2 1.98 2 3 C1.01 3.33 0.02 3.66 -1 4 C-0.67 2.68 -0.34 1.36 0 0 Z " fill="#2A2A2A" transform="translate(396,95)"/>
<path d="M0 0 C0.66 0 1.32 0 2 0 C2 1.32 2 2.64 2 4 C1.34 3.67 0.68 3.34 0 3 C0 2.01 0 1.02 0 0 Z " fill="#2A2A2A" transform="translate(661,843)"/>
<path d="M0 0 C2.475 0.495 2.475 0.495 5 1 C4.67 1.66 4.34 2.32 4 3 C2.68 2.01 1.36 1.02 0 0 Z " fill="#2A2A2A" transform="translate(145,524)"/>
<path d="M0 0 C0.99 0.33 1.98 0.66 3 1 C3 1.66 3 2.32 3 3 C2.01 2.67 1.02 2.34 0 2 C0 1.34 0 0.68 0 0 Z " fill="#2A2A2A" transform="translate(815,249)"/>
<path d="M0 0 C1.485 0.99 1.485 0.99 3 2 C2.67 2.66 2.34 3.32 2 4 C1.34 2.68 0.68 1.36 0 0 Z " fill="#2A2A2A" transform="translate(434,807)"/>
<path d="M0 0 C1.32 0.33 2.64 0.66 4 1 C2.68 1 1.36 1 0 1 C0 0.67 0 0.34 0 0 Z " fill="#2A2A2A" transform="translate(237,806)"/>
<path d="M0 0 C0.99 0 1.98 0 3 0 C3 0.66 3 1.32 3 2 C2.01 2 1.02 2 0 2 C0 1.34 0 0.68 0 0 Z " fill="#2A2A2A" transform="translate(226,803)"/>
<path d="M0 0 C0.99 0.495 0.99 0.495 2 1 C1.67 1.99 1.34 2.98 1 4 C0.67 2.68 0.34 1.36 0 0 Z " fill="#2A2A2A" transform="translate(392,97)"/>
<path d="M0 0 C1.65 0 3.3 0 5 0 C5 0.33 5 0.66 5 1 C3.35 1 1.7 1 0 1 C0 0.67 0 0.34 0 0 Z " fill="#2A2A2A" transform="translate(466,102)"/>
<path d="M0 0 C0.99 0.33 1.98 0.66 3 1 C2.01 1.33 1.02 1.66 0 2 C0 1.34 0 0.68 0 0 Z " fill="#2A2A2A" transform="translate(395,100)"/>
<path d="M0 0 C0.99 0.495 0.99 0.495 2 1 C1.67 1.66 1.34 2.32 1 3 C0.67 2.01 0.34 1.02 0 0 Z " fill="#2A2A2A" transform="translate(437,811)"/>
<path d="M0 0 C0.66 0 1.32 0 2 0 C1.67 0.99 1.34 1.98 1 3 C0.67 2.01 0.34 1.02 0 0 Z " fill="#2A2A2A" transform="translate(222,812)"/>
<path d="M0 0 C0.66 0.66 1.32 1.32 2 2 C1.01 2.495 1.01 2.495 0 3 C0 2.01 0 1.02 0 0 Z " fill="#2A2A2A" transform="translate(727,715)"/>
<path d="M0 0 C4 1 4 1 4 1 Z " fill="#2A2A2A" transform="translate(820,710)"/>
<path d="M0 0 C0.33 0.99 0.66 1.98 1 3 C0.34 2.67 -0.32 2.34 -1 2 C-0.67 1.34 -0.34 0.68 0 0 Z " fill="#2A2A2A" transform="translate(807,386)"/>
<path d="M0 0 C0.33 0.66 0.66 1.32 1 2 C0.01 1.67 -0.98 1.34 -2 1 C-1.34 0.67 -0.68 0.34 0 0 Z " fill="#2A2A2A" transform="translate(367,121)"/>
<path d="M0 0 C0.33 0.66 0.66 1.32 1 2 C0.01 1.67 -0.98 1.34 -2 1 C-1.34 0.67 -0.68 0.34 0 0 Z " fill="#2A2A2A" transform="translate(358,120)"/>
<path d="M0 0 C0.66 0 1.32 0 2 0 C2 0.66 2 1.32 2 2 C1.34 2 0.68 2 0 2 C0 1.34 0 0.68 0 0 Z " fill="#2A2A2A" transform="translate(351,117)"/>
<path d="M0 0 C0.66 0.66 1.32 1.32 2 2 C1.34 2 0.68 2 0 2 C0 1.34 0 0.68 0 0 Z " fill="#2A2A2A" transform="translate(658,841)"/>
<path d="" fill="#2A2A2A" transform="translate(0,0)"/>
<path d="M0 0 C0.33 0.66 0.66 1.32 1 2 C0.34 1.67 -0.32 1.34 -1 1 C-0.67 0.67 -0.34 0.34 0 0 Z " fill="#2A2A2A" transform="translate(660,831)"/>
<path d="M0 0 C3 1 3 1 3 1 Z " fill="#2A2A2A" transform="translate(224,806)"/>
<path d="M0 0 C0.66 0 1.32 0 2 0 C1.67 0.66 1.34 1.32 1 2 C0.67 1.34 0.34 0.68 0 0 Z " fill="#2A2A2A" transform="translate(326,804)"/>
<path d="M0 0 C0.99 0.495 0.99 0.495 2 1 C1.01 1.495 1.01 1.495 0 2 C0 1.34 0 0.68 0 0 Z " fill="#2A2A2A" transform="translate(237,803)"/>
<path d="M0 0 C0.66 0.66 1.32 1.32 2 2 C1.34 2 0.68 2 0 2 C0 1.34 0 0.68 0 0 Z " fill="#2A2A2A" transform="translate(819,714)"/>
<path d="M0 0 C0.66 0 1.32 0 2 0 C1.67 0.66 1.34 1.32 1 2 C0.67 1.34 0.34 0.68 0 0 Z " fill="#2A2A2A" transform="translate(827,711)"/>
<path d="M0 0 C3 1 3 1 3 1 Z " fill="#2A2A2A" transform="translate(824,709)"/>
<path d="M0 0 C0.33 0.66 0.66 1.32 1 2 C0.34 1.67 -0.32 1.34 -1 1 C-0.67 0.67 -0.34 0.34 0 0 Z " fill="#2A2A2A" transform="translate(839,706)"/>
<path d="M0 0 C0.66 0.66 1.32 1.32 2 2 C1.34 2 0.68 2 0 2 C0 1.34 0 0.68 0 0 Z " fill="#2A2A2A" transform="translate(857,693)"/>
<path d="M0 0 C0.66 0.66 1.32 1.32 2 2 C1.34 2 0.68 2 0 2 C0 1.34 0 0.68 0 0 Z " fill="#2A2A2A" transform="translate(873,519)"/>
<path d="M0 0 C0.66 0 1.32 0 2 0 C1.67 0.66 1.34 1.32 1 2 C0.67 1.34 0.34 0.68 0 0 Z " fill="#2A2A2A" transform="translate(155,514)"/>
<path d="M0 0 C0.66 0.66 1.32 1.32 2 2 C1.34 2 0.68 2 0 2 C0 1.34 0 0.68 0 0 Z " fill="#2A2A2A" transform="translate(821,259)"/>
<path d="" fill="#2A2A2A" transform="translate(0,0)"/>
<path d="" fill="#2A2A2A" transform="translate(0,0)"/>
<path d="" fill="#2A2A2A" transform="translate(0,0)"/>
<path d="" fill="#2A2A2A" transform="translate(0,0)"/>
<path d="M0 0 C0.99 0.495 0.99 0.495 2 1 C1.01 1.495 1.01 1.495 0 2 C0 1.34 0 0.68 0 0 Z " fill="#2A2A2A" transform="translate(363,115)"/>
<path d="" fill="#2A2A2A" transform="translate(0,0)"/>
<path d="" fill="#2A2A2A" transform="translate(0,0)"/>
<path d="" fill="#2A2A2A" transform="translate(0,0)"/>
<path d="" fill="#2A2A2A" transform="translate(0,0)"/>
<path d="" fill="#2A2A2A" transform="translate(0,0)"/>
<path d="" fill="#2A2A2A" transform="translate(0,0)"/>
<path d="" fill="#2A2A2A" transform="translate(0,0)"/>
<path d="" fill="#2A2A2A" transform="translate(0,0)"/>
<path d="" fill="#2A2A2A" transform="translate(0,0)"/>
<path d="" fill="#2A2A2A" transform="translate(0,0)"/>
<path d="M0 0 C2 1 2 1 2 1 Z " fill="#2A2A2A" transform="translate(334,813)"/>
<path d="M0 0 C2 1 2 1 2 1 Z " fill="#2A2A2A" transform="translate(228,811)"/>
<path d="M0 0 C2 1 2 1 2 1 Z " fill="#2A2A2A" transform="translate(228,809)"/>
<path d="M0 0 C2 1 2 1 2 1 Z " fill="#2A2A2A" transform="translate(820,712)"/>
<path d="" fill="#2A2A2A" transform="translate(0,0)"/>
<path d="" fill="#2A2A2A" transform="translate(0,0)"/>
<path d="" fill="#2A2A2A" transform="translate(0,0)"/>
<path d="" fill="#2A2A2A" transform="translate(0,0)"/>
<path d="" fill="#2A2A2A" transform="translate(0,0)"/>
<path d="" fill="#2A2A2A" transform="translate(0,0)"/>
<path d="" fill="#2A2A2A" transform="translate(0,0)"/>
<path d="" fill="#2A2A2A" transform="translate(0,0)"/>
<path d="" fill="#2A2A2A" transform="translate(0,0)"/>
<path d="" fill="#2A2A2A" transform="translate(0,0)"/>
<path d="" fill="#2A2A2A" transform="translate(0,0)"/>
<path d="" fill="#2A2A2A" transform="translate(0,0)"/>
<path d="M0 0 C2 1 2 1 2 1 Z " fill="#2A2A2A" transform="translate(153,517)"/>
<path d="" fill="#2A2A2A" transform="translate(0,0)"/>
<path d="" fill="#2A2A2A" transform="translate(0,0)"/>
<path d="M0 0 C2 1 2 1 2 1 Z " fill="#2A2A2A" transform="translate(146,513)"/>
<path d="" fill="#2A2A2A" transform="translate(0,0)"/>
<path d="" fill="#2A2A2A" transform="translate(0,0)"/>
<path d="" fill="#2A2A2A" transform="translate(0,0)"/>
<path d="" fill="#2A2A2A" transform="translate(0,0)"/>
<path d="" fill="#2A2A2A" transform="translate(0,0)"/>
<path d="" fill="#2A2A2A" transform="translate(0,0)"/>
<path d="" fill="#2A2A2A" transform="translate(0,0)"/>
<path d="" fill="#2A2A2A" transform="translate(0,0)"/>
<path d="M0 0 C2 1 2 1 2 1 Z " fill="#2A2A2A" transform="translate(365,120)"/>
<path d="" fill="#2A2A2A" transform="translate(0,0)"/>
<path d="M0 0 C2 1 2 1 2 1 Z " fill="#2A2A2A" transform="translate(367,116)"/>
<path d="" fill="#2A2A2A" transform="translate(0,0)"/>
<path d="" fill="#2A2A2A" transform="translate(0,0)"/>
<path d="" fill="#2A2A2A" transform="translate(0,0)"/>
<path d="" fill="#2A2A2A" transform="translate(0,0)"/>
<path d="" fill="#2A2A2A" transform="translate(0,0)"/>
<path d="" fill="#2A2A2A" transform="translate(0,0)"/>
<path d="" fill="#2A2A2A" transform="translate(0,0)"/>
<path d="" fill="#2A2A2A" transform="translate(0,0)"/>
<path d="" fill="#2A2A2A" transform="translate(0,0)"/>
<path d="" fill="#2A2A2A" transform="translate(0,0)"/>
<path d="" fill="#2A2A2A" transform="translate(0,0)"/>
<path d="" fill="#2A2A2A" transform="translate(0,0)"/>
<path d="" fill="#2A2A2A" transform="translate(0,0)"/>
<path d="" fill="#2A2A2A" transform="translate(0,0)"/>
<path d="" fill="#2A2A2A" transform="translate(0,0)"/>
<path d="" fill="#2A2A2A" transform="translate(0,0)"/>
<path d="" fill="#2A2A2A" transform="translate(0,0)"/>
<path d="" fill="#2A2A2A" transform="translate(0,0)"/>
<path d="" fill="#2A2A2A" transform="translate(0,0)"/>
<path d="" fill="#2A2A2A" transform="translate(0,0)"/>
<path d="" fill="#2A2A2A" transform="translate(0,0)"/>
<path d="" fill="#2A2A2A" transform="translate(0,0)"/>
<path d="" fill="#2A2A2A" transform="translate(0,0)"/>
<path d="" fill="#2A2A2A" transform="translate(0,0)"/>
<path d="" fill="#2A2A2A" transform="translate(0,0)"/>
<path d="" fill="#2A2A2A" transform="translate(0,0)"/>
<path d="" fill="#2A2A2A" transform="translate(0,0)"/>
<path d="" fill="#2A2A2A" transform="translate(0,0)"/>
<path d="" fill="#2A2A2A" transform="translate(0,0)"/>
<path d="" fill="#2A2A2A" transform="translate(0,0)"/>
<path d="" fill="#2A2A2A" transform="translate(0,0)"/>
<path d="" fill="#2A2A2A" transform="translate(0,0)"/>
<path d="" fill="#2A2A2A" transform="translate(0,0)"/>
<path d="" fill="#2A2A2A" transform="translate(0,0)"/>
<path d="" fill="#2A2A2A" transform="translate(0,0)"/>
<path d="" fill="#2A2A2A" transform="translate(0,0)"/>
<path d="" fill="#2A2A2A" transform="translate(0,0)"/>
<path d="" fill="#2A2A2A" transform="translate(0,0)"/>
<path d="" fill="#2A2A2A" transform="translate(0,0)"/>
<path d="" fill="#2A2A2A" transform="translate(0,0)"/>
<path d="" fill="#2A2A2A" transform="translate(0,0)"/>
<path d="" fill="#2A2A2A" transform="translate(0,0)"/>
<path d="" fill="#2A2A2A" transform="translate(0,0)"/>
<path d="" fill="#2A2A2A" transform="translate(0,0)"/>
<path d="" fill="#2A2A2A" transform="translate(0,0)"/>
<path d="" fill="#2A2A2A" transform="translate(0,0)"/>
<path d="" fill="#2A2A2A" transform="translate(0,0)"/>
<path d="" fill="#2A2A2A" transform="translate(0,0)"/>
<path d="" fill="#2A2A2A" transform="translate(0,0)"/>
<path d="" fill="#2A2A2A" transform="translate(0,0)"/>
<path d="" fill="#2A2A2A" transform="translate(0,0)"/>
<path d="" fill="#2A2A2A" transform="translate(0,0)"/>
<path d="" fill="#2A2A2A" transform="translate(0,0)"/>
<path d="" fill="#2A2A2A" transform="translate(0,0)"/>
<path d="" fill="#2A2A2A" transform="translate(0,0)"/>
<path d="" fill="#2A2A2A" transform="translate(0,0)"/>
<path d="" fill="#2A2A2A" transform="translate(0,0)"/>
<path d="" fill="#2A2A2A" transform="translate(0,0)"/>
<path d="" fill="#2A2A2A" transform="translate(0,0)"/>
<path d="" fill="#2A2A2A" transform="translate(0,0)"/>
<path d="" fill="#2A2A2A" transform="translate(0,0)"/>
<path d="" fill="#2A2A2A" transform="translate(0,0)"/>
<path d="" fill="#2A2A2A" transform="translate(0,0)"/>
<path d="" fill="#2A2A2A" transform="translate(0,0)"/>
<path d="" fill="#2A2A2A" transform="translate(0,0)"/>
<path d="" fill="#2A2A2A" transform="translate(0,0)"/>
<path d="" fill="#2A2A2A" transform="translate(0,0)"/>
<path d="" fill="#2A2A2A" transform="translate(0,0)"/>
<path d="" fill="#2A2A2A" transform="translate(0,0)"/>
<path d="" fill="#2A2A2A" transform="translate(0,0)"/>
<path d="" fill="#2A2A2A" transform="translate(0,0)"/>
<path d="" fill="#2A2A2A" transform="translate(0,0)"/>
<path d="" fill="#2A2A2A" transform="translate(0,0)"/>
<path d="" fill="#2A2A2A" transform="translate(0,0)"/>
<path d="" fill="#2A2A2A" transform="translate(0,0)"/>
<path d="" fill="#2A2A2A" transform="translate(0,0)"/>
<path d="" fill="#2A2A2A" transform="translate(0,0)"/>
<path d="" fill="#2A2A2A" transform="translate(0,0)"/>
<path d="" fill="#2A2A2A" transform="translate(0,0)"/>
<path d="" fill="#2A2A2A" transform="translate(0,0)"/>
</svg>
