<svg xmlns="http://www.w3.org/2000/svg" viewBox="0 0 477.96 167.78">
  <defs>
    <style>
      .st0 {
        fill: #fff;
      }
      .st1 {
        fill: #cefb16;
      }
    </style>
  </defs>
  <g>
    <polygon class="st1" points="131.54 70.03 140.91 84.42 129.31 101.92 119.81 87.78 131.54 70.03"/>
    <path class="st1" d="M116.68,106.59l-12.28-18.28,15.17-22.95h0l6.22-9.42,6.87-10.39-12.75-18.94-51.71.15-37.29,57.21,38.18,57.19h55.15l7.78-11.74-9.2-13.68-6.14-9.16ZM119.45,129.79l-.72,1h-44.43l-31.03-46.83,30.5-46.81,39.51-.13h.76l5.81,8.71-22,33.39-10.57-16.53h-11.04l15.88,25.06-15.01,22.31h11.78l9.4-13.67,21.23,31.85.56.81-.62.86Z"/>
  </g>
</svg>

